/* XPM */
static char *_516e44c6ce2430af8725313a5876ba1vgG15Br4dyWi0GxU[] = {
/* columns rows colors chars-per-pixel */
"50 50 15 1 ",
"  c None",
". c #373737",
"X c #606060",
"o c #A05048",
"O c #B86860",
"+ c #D0B058",
"@ c #D08078",
"# c #635085",
"$ c #8470A9",
"% c #888888",
"& c #A495BF",
"* c #F5E6B4",
"= c #A8A0C8",
"- c #E8E8F8",
"; c white",
/* pixels */
"                                                  ",
"                                                  ",
"                                                  ",
"                                                  ",
"                                                  ",
"                                                  ",
"                                                  ",
"                                                  ",
"                                                  ",
"                                                  ",
"                                                  ",
"                       ....                       ",
"                  ..  .=--=..                     ",
"                  .=..---=--=.                    ",
"                   .=--------.                    ",
"                   .##=-=--=#.                    ",
"                  .&#$#######.                    ",
"                 .&#$&&$$$$$#$.                   ",
"                 .&#&&&&$$$$$#$.                  ",
"                .&#$&&&&$$$$$#$.                  ",
"              . .&#&&&&$$$$$$$#$. .               ",
"             .+.#$#$&$$$$$$$$$#$..+..             ",
"             ++&#$#$$$$$$$$$$$#$#&++.             ",
"             .$&#$#$$$$$$$$$$$#$#&$.              ",
"              ...$#$$$$$$$$$$$#$...               ",
"                 .&#$$$$$$$$$#&.                  ",
"                 .&#&$$$$$$$&#&.                  ",
"                  .&#&&$$$&&#&.                   ",
"                ..&#.&&&&&&&.#&..                 ",
"              ..+&&.;.#&&&#.;.&&+..               ",
"             .++*&. .O@###@O. .&*++.              ",
"             .+**+. ..@OOO@.. .+**+.              ",
"              .**.    ..o..    .**.               ",
"              ...   %%XX.XX%%   ...               ",
"                   %XXXXXXXXX%                    ",
"                   %XXXXXXXXX%                    ",
"                   %XXXXXXXXX%                    ",
"                    %%XXXXX%%                     ",
"                      %%%%%                       ",
"                                                  ",
"                                                  ",
"                                                  ",
"                                                  ",
"                                                  ",
"                                                  ",
"                                                  ",
"                                                  ",
"                                                  ",
"                                                  ",
"                                                  "
};
