/* XPM */
static char *_904569155f7477bcb274adad746dd90rODd5SwumvMwc2kr[] = {
/* columns rows colors chars-per-pixel */
"64 64 152 2 ",
"   c #57C156",
".  c #59C257",
"X  c #5CC45B",
"o  c #66C054",
"O  c #62C65E",
"+  c #68C65D",
"@  c #72C75F",
"#  c #7DC75E",
"$  c #62C660",
"%  c #66C964",
"&  c #6ACA67",
"*  c #6DCD6B",
"=  c #75C963",
"-  c #7ACA65",
";  c #71CF6E",
":  c #7CCE6B",
">  c #6FD06D",
",  c #71D06F",
"<  c #7CD06E",
"1  c #72CF70",
"2  c #7BCE74",
"3  c #74D272",
"4  c #79D376",
"5  c #7DD67B",
"6  c #7FD87D",
"7  c #83BF51",
"8  c #84C053",
"9  c #85C75D",
"0  c #8CC65B",
"q  c #8FC85F",
"w  c #90C85F",
"e  c #85CA64",
"r  c #8BCB65",
"t  c #83CD6B",
"y  c #8ACD69",
"u  c #94CB65",
"i  c #98CE67",
"p  c #94CD68",
"a  c #96CD68",
"s  c #97CD68",
"d  c #97CD69",
"f  c #96CC68",
"g  c #97CE68",
"h  c #96CD68",
"j  c #98CE69",
"k  c #98CF69",
"l  c #98CE6A",
"z  c #99CF6A",
"x  c #99CF6B",
"c  c #9ACF6A",
"v  c #9ACF6B",
"b  c #99CF6A",
"n  c #81D16F",
"m  c #81D06E",
"M  c #8DD06D",
"N  c #90D06B",
"B  c #91D06C",
"V  c #94D16F",
"C  c #99D069",
"Z  c #9BD16B",
"A  c #9CD06B",
"S  c #9BD06C",
"D  c #9BD06D",
"F  c #9CD16D",
"G  c #9CD26D",
"H  c #9DD16E",
"J  c #9CD16F",
"K  c #9ED16E",
"L  c #9DD26F",
"P  c #9ED26F",
"I  c #9FD26F",
"U  c #9DD16D",
"Y  c #83D170",
"T  c #87D475",
"R  c #83D373",
"E  c #8BD475",
"W  c #81D77F",
"Q  c #84D77B",
"!  c #8BD77A",
"~  c #80D87E",
"^  c #81D87F",
"/  c #81D97F",
"(  c #81DA7F",
")  c #81D87E",
"_  c #96D372",
"`  c #95D472",
"'  c #93D271",
"]  c #98D370",
"[  c #9ED270",
"{  c #9FD270",
"}  c #9FD372",
"|  c #9FD270",
" . c #98D77A",
".. c #9DD87B",
"X. c #A0D26F",
"o. c #A0D371",
"O. c #A0D372",
"+. c #A0D373",
"@. c #A1D472",
"#. c #A0D473",
"$. c #A1D473",
"%. c #A1D474",
"&. c #A2D474",
"*. c #A4D675",
"=. c #A5D776",
"-. c #A1D474",
";. c #A6D877",
":. c #A6D779",
">. c #A8D77A",
",. c #A7D879",
"<. c #A9D97C",
"1. c #82D880",
"2. c #82D980",
"3. c #83D981",
"4. c #82DA80",
"5. c #83DA81",
"6. c #84D982",
"7. c #85D983",
"8. c #84DA82",
"9. c #85DA83",
"0. c #85DB83",
"q. c #86DB84",
"w. c #87DB85",
"e. c #86DC84",
"r. c #87DC85",
"t. c #84DA82",
"y. c #8BDB85",
"u. c #88DC86",
"i. c #89DD87",
"p. c #8ADD86",
"a. c #8ADD88",
"s. c #8BDD89",
"d. c #8CDE8A",
"f. c #8DDE8B",
"g. c #8EDF8C",
"h. c #8DDE8B",
"j. c #95DD84",
"k. c #A3DB80",
"l. c #ADDC82",
"z. c #B1DE86",
"x. c #B3DF88",
"c. c #90E08E",
"v. c #91E08F",
"b. c #91E08F",
"n. c #92E190",
"m. c #93E191",
"M. c #94E292",
"N. c #92E190",
"B. c #9AE498",
"V. c #9AE598",
"C. c #9BE599",
"Z. c #B6E18B",
/* pixels */
"9./ W / ~ ~ 5 5 / 6 6 6 4 5 3.e.3.6 6 6 w.m.s.7.6 / / 6 W 5 5 / W 5 5 5 5 3.u.9.W 6 / i.m.s.9.W / 5 4 , * > , * > * & * 4 0.6 6 ",
"m./ 9.3.~ W 4 , / , * / 5 5 3.f.s.3.3.6 e.V.V.c.3.7.3.6 W 4 3 7., , 1.4 5 9.f.w./ 3.5 d.V.B.d./ 9.4 ; > O & , X % * & * 3 3.3 3 ",
"s.c.i.3.5 W 4 * & % * 3 3 4 6 / 4 3 3 5 3.w.1.3.e.W 3 1 3 > * % % * 3 3 4 / / 4 3 3 5 9.9.e.f.d.5 ; * ; & % X O * > * 3 4 4 3 4 ",
"/ m.9.4 3 4 3 &   O & * > 3 4 3 3 ; , 3 3 3 & 3 3.3 * * : : = $ & - : : Y T Y 3 ; ; 3 3 1 3 3.u.n : : : : = o = - : : 4 4 3 > 4 ",
"3 3.3 & * , & & . + & ; * * ; ; , ; ; , * * O & 3 * * : u u r 2 r u u u u u s t ; 1 , * & O & < r u u u u 0 8 w u u u - 3 , ; 4 ",
"4 3 & * > % % & * - r r r r r _ ` M p r r r r r 9 r r r 0 0 u _ u u u u u i +._ B y ; - y y r 9 w u u 0 0 w u u u u u y n 6 4 4 ",
"6 * * * * = = - t y u u u j i H D D s u u u s u 0 q u u 0 0 u j u u w u u u H D C C y e u i u u i j j u u v H j w u s u y 4 3 4 ",
"4 3 * * 3 y u u s j u u f j H j s C H C s u s u u u u u p u u u u u u u u u u u s C s u u i } o.X.X.o.%.X.+.o.j u w u u e * 3 4 ",
"5 ; , , 3 r u u s D } v } } +.H H o.o.o.D 9 u u u u j C u u u s f u u u f u u u f s f u 0 D +.%.o.;.;.H +.o.+.j u w u u e & * 4 ",
"3 , , < M u u u D =.>.} } } +.+.+.+.%.H i u u u s C C i u u s s D v u u j v v j v J u u i j H %.;.=.o.H +.%.%.+.j u u u r * 3 4 ",
", * 3 n u r u j } <.l.>.+.H &.&.o.+.o.D j %.v j s } H C w u j j &.&.J u v &.&.} } } j v +.j v *.,.;.o.A +.o.%.=.+.j u u y > 4 5 ",
"4 * , n A 0 u %.%.%.:.Z.=.} &.&.%.%.%.o.%.%.o.o.H ;.>.=.u j %.%.&.<.x.&.} } &.&.&.&.&.&.%.+.X.X.;.>.o.u H %.%.%.>.>.u u t > 5 1.",
"* & 3 : q q u C &.%.<.Z.z.>.&.&.H j +.=.=.%.A A H ;.X.C H C D %.&.l.Z.l.>.} &.v v %.%.;.o.C A +.;.I C H j H %.%.<.<.+.j y 1 & 1 ",
"; & * : q u u i } %.<.Z.l.:.+.+.j u X.;.,.%.C C X.*.o.A o.C C %.&.<.Z.l.>.} &.i u %.,.:.+.j j X.;.I H %.j C %.%.:.<.+.j y * X * ",
"3 & ; n G i j H } %.:.Z.>.+.H +.u u } =.;.%.o.H H o.;.;.%.o.X.o.} l.z.>.} J } u u %.,.=.o.+.X.X.o.;.;.o.+.X.} &.,.:.j u e * X & ",
"9.* : p H A H +.} +.%.:.=.X.A u s H } =.,.%.<.>.H o.;.>.,.=.o.X.} =.>.} } j u f } o.,.=.%.<.=.X.%.;.,.,.o.} } &.} v u u - X % * ",
"9.3 y u C D } } o.%.o.+.o.%.+.j j H ;.;.,.,.,.<.:.o.%.;.>.=.o.*.*.+.+.o.+.H j C I ;.>.>.<.<.<.:.o.%.;.>.*.%.%.%.I C u u e + % * ",
"W W y u s C } %.;.=.o.X.+.%.o.%.H i ;.,.<.Z.,.,.l.+.+.o.;.=.;.,.*.+.H +.o.o.%.C C ,.>.l.l.:.<.<.o.o.*.>.%.*.>.*.} D s u y ; $ & ",
"4 3 y u u u D %.,.=.o.H +.o.+.%.+.o.>.,.<.z.<.%.=.&.+.} %.%.%.>.o.+.X.+.o.+.o.%.*.,.>.<.l.:.%.%.o.} X.%.%.*.,.%.H A u u u y ; , ",
"3 , y u u u D %.,.=.%.o.o.o.X.C X.;.>.>.<.<.%.%.%.o.+.o.%.%.%.>.=.+.o.%.o.H C } ;.,.,.<.<.%.%.%.%.o.o.%.o.;.>.%.o.} } u u q : 3 ",
"> > y p u s V o.,.%.%.%.%.%.o.A H :.:.:.:.%.%.%.%.%.%.%.%.%.%.,.%.%.%.%.%.} C } ,.,.,.*.%.%.%.%.%.%.%.%.%.*.;.%.} } } s u 0 4 4 ",
"> * y p s u u s o.%.%.%.%.%.%.,.=.&.&.&.%.%.%.%.%.%.%.%.%.%.%.%.+.%.%.%.%.*.,.;.o.*.%.} %.%.%.%.%.%.%.%.%.%.%.%.%.[ s u u C T 4 ",
"> 1 y p f u s s o.:.;.%.+.+.+.;.=.%.&.} =.l.=.%.%.%.%.%.%.%.o.%.=.=.o.+.} %.,.:.%.%.%.,.l.%.%.%.%.%.%.%.%.o.%.,.=.} u u C D ! 4 ",
"4 > t y f p u u o.o.H %.X.H =.>.,.%.&...:.z.l.>.%.=.%.%.o.} H =.H +.o.X.} *.<.,.%.%.} <.z.l.,.%.;.%.%.%.} } %.X.} [ u u C } R 3 ",
"7.3 3 n u u u 0 } i u +.+.+.=.l.<.%.%.%.>.Z.Z.l.:.,.=.o.%.C j =.u u o.+.o.,.l.>.%.%.%.<.Z.Z.l.=.>.=.%.%.i A *.w s D u u D :.4 * ",
"w.b./ 2 u u u u w u v +.+.=.l.<.:.%.%.%.o.*.,.<.Z.>.o.} o.+.H u i H o.+.>.l.<.,.%.%.%.%.=.,.<.Z.>.o.+.%.X.i i i s s u [ } [ < , ",
"5 g.5 : u u u w 0 i X.o.+.+.<.:.%.%.%.%.o.H H o.l.;.o.o.o.+.A 0 i X.o.+.=.<.;.%.%.%.o.o.H C >.<.*.X.o.%.X.i 0 v v u u v H V : > ",
"3 5 * - u u u u w i +.+.} } &.=.:.%.%.%.o.X.i H ;.X.o.%.X.X.C w A X.+.X.} %.,.%.*.%.o.} H i H *.X.o.o.H X.i u H v u u u u x : ; ",
"4 % % - p 0 0 u *.*.X.H +.X.X.<.<.,.%.+.X.o.=.H u A } } u C X.;.*.+.H +.} +.l.<.,.} } } o.;.I u A o.H u v X.=.o.i w u u j =.R 3 ",
"3 & - e u r w u +.*.+.X.+.+.X.:.,.=.,.%.o.%.=.o.A H } o.A H +.=.o.+.H +.} H >.:.*.*.%.} %.*.o.H I X.o.A X.X.=.+.j u i u y Y 3 3 ",
"; 3 e u j u u u X.%.+.A X.o.+.o.%.%.=.%.o.H } o.o.o.o.%.o.X.+.%.o.o.H &.+.+.+.o.*.;.*.} I } %.%.X.o.*.} X.+.+.&.v u u y : * ; , ",
"; * y s v u u i +.o.+.X.o.o.o.X.} %.%.%.} u H o.%.%.;.;.X.+.o.o.%.o.X.o.o.o.H o.%.%.} D u } %.%.o.;.;.A +.+.&.+.v w u : ; & * ; ",
"% > M C u u u s } <.<.%.H +.%.o.+.X.%.C j H j C o.;.,.o.H } %.%.<.<.&.} +.+.+.X.o.%.C j H j H o.;.=.o.H } o.%.l.} u u - * * * 3 ",
"% * M C j w w j } ,.l.<.o.+.%.%.+.+.%.H H %.H A o.;.,.=.A } %.%.>.l.<.+.+.+.o.+.o.%.H H +.C H *.>.;.o.C } %.*.<.:.V e : * , > 4 ",
"* & M C C 0 0 i } } <.Z.>.o.%.%.o.+.%.%.o.%.o.+.X.;.;.o.u A %.%.%.l.z.:.+.%.%.+.o.%.%.%.%.o.H o.;.;.o.u H } %.%.,...* * 1 > 4 W ",
"* & r u 0 u w 0 } %.>.Z.z.<.%.%.H i +.=.;.%.C i H ;.X.C H C C %.%.<.Z.l.>.%.%.C C %.,.%.+.i C o.;.H C I C D %.%.<.k.~ 3 > > > 4 ",
"> & y p u u r w } +.,.Z.l.:.} o.i u X.;.,.%.C A X.*.+.H o.A C %.&.l.Z.<.=.+.o.i u %.>.;.+.i j } ;.o.I o.D I %.%.>.k.' 1 * 1 & 3 ",
"4 & t N C C u u } } <.z.<.o.H H u u } ;.,.%.%.o.H +.=.;.*.} o.o.} <.z.:.+.H H u u %.,.;.+.*.X.H o.;.,.*.I I } *.>.:.f - * & * 3 ",
"w.& * t H G j s v } &.=.%.o.A u s o.o.;.>.%.l.>.H %.=.>.,.;.o.H } %.=.+.X.A w j +.o.:.:.=.l.:.} o.,.>.;.*.} I o.&.} p u #   3 5 ",
"3.4 , : C D j j %.&.&.} o.o.} H C A %.,.<.<.>.<.>.o.o.=.>.;.o.*.%.+.+.o.+.H A j H =.>.<.<.>.<.:.o.%.;.>.*.%.*.o.} } p u e % 3 4 ",
"6 6 1 = y s s x o.*.o.H o.%.o.%.H C ;.>.<.Z.%.;.l.o.} o.;.=.=.>.=.+.H +.o.o.%.H H ,.,.<.l.:.<.<.X.+.&.=.%.=.,.=.} j u u y 1 * 4 ",
"4 ; 3 * & y p s D o.o.H o.o.H o.%.%.;.,.<.Z.,.o.%.%.+.H %.o.%.>.%.+.H +.o.I %.%.*.,.<.<.l.:.%.%.o.H } &.%.=.,.%.+.v f u e > 1 4 ",
"6 3 * * ; y p s C o.o.} %.%.o.C } ,.,.,.,.,.%.%.%.%.o.} %.%.=.>.=.o.+.+.o.} i o.;.;.<.,.:.%.%.%.%.&.&.&.%.=.>.%.+.+.H j e % > 5 ",
"6 3 3 * ; y u s j } %.%.%.%.o.I o.;.;.;.=.%.%.%.%.%.%.%.%.%.%.=.%.+.+.*.o.} H o.;.;.;.;.%.%.%.%.%.%.%.%.%.%.=.%.&.&.&.v e % > 4 ",
"1.5 3 1 ; y u f s } o.%.+.+.&.:.:.%.&.} %.=.%.&.%.%.%.%.%.%.%.o.=.+.+.o.%.=.,.=.%.%.%.%.:.%.%.%.%.%.%.%.%.%.%.%.%.o.o.j y 3 1 , ",
"5 3 1 : p u u f u o.,.%.X.+.&.:.:.} &.&.:.l.>.} %.%.%.%.%.%.%.o.=.=.+.X.+.%.,.=.%.%.%.,.l.%.%.%.%.%.%.%.%.o.=.;.=.+.+.j y 4 , , ",
"w.1 1 n u f u r u C A +.X.+.=.k.>.} } &.:.Z.z.>.%.=.%.%.%.H H ;.v v &.X.+.=.<.:.%.%.%.<.Z.l.<.%.=.%.%.%.H H *.v } +.H j M 5 1 , ",
"f.3 3 n u u w 0 u w u +.X.+.=.l.<.%.&...:.z.x.l.,.>.;.%.o.H A X.i i +.+.o.>.z.:.%.%.%.<.z.z.l.:.>.%.%.%.i A X.u j +.} D ' / 3 , ",
"7.i.5 < u u u u 7 0 i o.%.>.z.<.=.%.%.%.%.+.o.l.Z.<.*.X.*.o.H w i H o.+.<.l.<.=.%.%.%.o.X.=.<.Z.>.o.o.o.o.C w A X.o.+.=.o.V < , ",
"4 5 3 : u u u 0 7 0 u o.+.o.,.=.%.+.%.%.+.H A o.<.=.o.o.o.o.j 0 i +.%.X.%.:.=.%.%.%.%.o.A C ;.<.;.X.o.%.o.i w j o.o.+.H D s < , ",
"3 > & - u u w w 8 0 j +.+.H +.:.:.=.+.+.X.X.A H o.X.+.+.A A A u H X.+.X.+.%.=.=.=.%.o.o.H A A o.H o.%.H H C u I o.+.C i u V < , ",
"4 X % - u 0 0 u v j s H +.+.H l.<.>.%.} X.o.=.o.u A X.H i C o.;.=.+.H +.+.o.z.<.,.%.I X.%.>.H i A } H u C *.>.%.+.A u u j :.R , ",
"5 * * - u u u w s s i u H +.X.=.:.=.=.=.+.+.*.+.I A o.o.} H +.*.+.+.H +.+.X.:.=.%.,.%.o.&.%.+.H H X.o.} I o.%.%.j u u u u C < 3 ",
"4 , * ; y y u u u u u w v +.X.X.o.%.=.%.+.H H *.o.o.o.%.o.H o.%.o.+.X.+.o.o.+.+.%.,.%.} H +.%.o.I *.o.o.I I D [ u u f u u u : 3 ",
"5 3 , , 3 r u u s s u u v +.} H X.o.%.&.H u A +.%.*.;.;.X.o.%.%.=.o.X.X.%.o.H X.o.%.o.H i H +.+.o.*.*.A } D u s u u u u u u : * ",
"3 5 4 3 ; r u u u } +.u u u j } +.+.o.C j H v v %.>.;.} H o.%.%.<.<.+.H o.%.o.+.+.%.j C v i i j I C u u u C s %.v u u u u y = * ",
"4 5 / 4 , = e u p v } } s u u v v v v d u v v v } ;.,.%.j J &.&.>.l.l.+.+.&.&.H v J p s v p u u A j u 0 u f s H +.} u u y : ; , ",
"4 4 / 6 3 & = r u p v l.} u f p u u f d d f v v A ;.o.D u j v J } :.z.%.H } } s u s f f u u w w C i u 0 r u u f %.:.p y y * ; 4 ",
", 4 9.5 * 4 * % r f v l.,.} p u r 7 u x v f 0 0 u i u 0 u 0 r f f } l.<.J f u 0 0 s V C u 0 0 u A w 0 u 0 0 d f =.<.^ 4 , , * 3 ",
"3 4 5 / 5 / 4 , : y J l.&.s u f y t y x v f - = - < t : : - = : : T j.T t : : : e u C C u r 0 u C u u u - = : : ! y.4 3 4 4 * , ",
"W 4 5 w.w.3.6 4 > : y ..M y e - : 2 y M M y < * & ; 3 5 4 3 > 1 3 5 7.4 1 > * 1 2 y M M y M e t y M M y ; * * 1 6 3.4 4 4 3 , 4 ",
"s.4 5 1.e.e.3.4 * * 1 ; 1 * & . $ > > 3 3 3 5 4 & , 4 9.e./ W 4 5 / / 6 5 1 % * , , 3 3 3 5 4 & * 3 3 4 3 > * 5 / 6 / 4 , % 4 6 ",
"w.u.1.5 3.7.7.5 W 5 5 4 4 5 4 1 3 > 5 / 3.e.9.3.u.4 5 / 7.3./ 3./ 5 5 W W 5 4 3 3 6 3.0.0.4 4 4 * > 3 3 4 5 5 / 5 5 6 6 5 4 3 4 ",
"9.u.1.5 5 3.3.W w.1.5 4 5 W 5 W 4 4 9.e.i.m.9.9.u.5 5 / 3./ 3.e.7.5 4 W 5 5 / 4 4 e.0.d.c.4 5 5 3 3 4 4 5 3.w.3.5 4 6 6 6 6 4 6 "
};
