/* XPM */
static char *_1704_06fd4303ba4fe2c126c0185b832507dc550aaf432588ba4062430d7fa6188840[] = {
/* columns rows colors chars-per-pixel */
"50 28 211 2 ",
"   c #151313",
".  c #1B1817",
"X  c #19191B",
"o  c #1A191A",
"O  c #1B1A1B",
"+  c #1B1B1B",
"@  c #1F1C1C",
"#  c #1E1D1E",
"$  c #1F1E1E",
"%  c #201E1E",
"&  c #041C25",
"*  c #1E1F21",
"=  c #1E2123",
"-  c #1E2326",
";  c #1F2628",
":  c #222222",
">  c #232323",
",  c #242222",
"<  c gray14",
"1  c #252425",
"2  c #252525",
"3  c #272624",
"4  c #262526",
"5  c #272627",
"6  c #272727",
"7  c #282727",
"8  c #282728",
"9  c #20282A",
"0  c #222A2C",
"q  c #242D2E",
"w  c #292828",
"e  c #2A2929",
"r  c #2B2A2A",
"t  c #2B2A2B",
"y  c #2C2A2B",
"u  c #2D2C2C",
"i  c #2D2D2D",
"p  c #2F2E2E",
"a  c #2C3435",
"s  c gray19",
"d  c #313031",
"f  c #333131",
"g  c #333232",
"h  c #343333",
"j  c gray21",
"k  c #3A3530",
"l  c #383737",
"z  c #373738",
"x  c #313838",
"c  c #3A3939",
"v  c gray23",
"b  c #3C3B3B",
"n  c #3C3C3C",
"m  c #3E3D3D",
"M  c #3E3E3E",
"N  c #604D36",
"B  c #06445F",
"V  c #184B5F",
"C  c #3F4D4D",
"Z  c #074E71",
"A  c #325C64",
"S  c gray26",
"D  c #434343",
"F  c #454442",
"G  c #444444",
"H  c gray28",
"J  c #4E4840",
"K  c #484848",
"L  c #494949",
"P  c #4D4D4E",
"I  c gray31",
"U  c #514E4B",
"Y  c #5B5141",
"T  c #5A564A",
"R  c #455952",
"E  c #4B5A56",
"W  c gray32",
"Q  c #565454",
"!  c #585757",
"~  c gray37",
"^  c #6C5F4D",
"/  c #6B6145",
"(  c #7A6244",
")  c #6B6650",
"_  c #746557",
"`  c #726B56",
"'  c #7A725D",
"]  c #497079",
"[  c gray39",
"{  c #717070",
"}  c #767676",
"|  c gray47",
" . c gray48",
".. c #7C7B7B",
"X. c #815F3D",
"o. c #85674A",
"O. c #9D7A4B",
"+. c #886F58",
"@. c #827059",
"#. c #8F7C5E",
"$. c #807667",
"%. c #BF854F",
"&. c #BE8A53",
"*. c #968670",
"=. c #958574",
"-. c #988470",
";. c #9B9479",
":. c #9E987D",
">. c #B2946E",
",. c #EA9D5A",
"<. c #C09964",
"1. c #C29965",
"2. c #D5A764",
"3. c #C6A87D",
"4. c #D5AA75",
"5. c #E0AD6A",
"6. c #E2AB6E",
"7. c #EBAA69",
"8. c #E5AD70",
"9. c #F6BC71",
"0. c #F4BA75",
"q. c #FEC373",
"w. c #FDC576",
"e. c #065880",
"r. c #055A8A",
"t. c #045F94",
"y. c #367D8C",
"u. c #0372A2",
"i. c #046EBE",
"p. c #0E7AB8",
"a. c #007CC5",
"s. c #0386B1",
"d. c #0499BB",
"f. c #1AA2AE",
"g. c #08A6B2",
"h. c #06A5BE",
"j. c #1CA3BB",
"k. c #1FA4BC",
"l. c #478A93",
"z. c #0287CC",
"x. c #048DC8",
"c. c #0498CB",
"v. c #0083D5",
"b. c #0085D5",
"n. c #0080D8",
"m. c #0089DB",
"M. c #008CDA",
"N. c #0091DB",
"B. c #0095DE",
"V. c #07ADC2",
"C. c #09B2C2",
"Z. c #07A3D0",
"A. c #06AFD4",
"S. c #09BBD6",
"D. c #0096E0",
"F. c #00B1EC",
"G. c #05D6E9",
"H. c #02C5F5",
"J. c #04D3F9",
"K. c #04DBFB",
"L. c #05E4FF",
"P. c #848383",
"I. c gray52",
"U. c #878888",
"Y. c #898989",
"T. c #8E8E8E",
"R. c #919090",
"E. c #929292",
"W. c #9B9B9B",
"Q. c gray62",
"!. c #A29A92",
"~. c #A39E95",
"^. c #AA9D90",
"/. c #A49F9A",
"(. c #BFA780",
"). c #B6A089",
"_. c #AEA69B",
"`. c #8AA8AA",
"'. c #8FB4B7",
"]. c #A5A5A5",
"[. c #AFAFAF",
"{. c gray70",
"}. c gray72",
"|. c #CDAB80",
" X c #CEB591",
".X c #C6B79F",
"XX c #CAB99C",
"oX c #D9BE95",
"OX c #E5C089",
"+X c #ECCA96",
"@X c #E0C7A4",
"#X c #E9CDA1",
"$X c #C1C1C1",
"%X c #CBCBCB",
"&X c #D0CCC6",
"*X c #D2CEC6",
"=X c #CED2D2",
"-X c #D2D2D2",
";X c #D6D8D7",
":X c #DBD8D5",
">X c gray87",
",X c #E9E0D7",
"<X c gray88",
"1X c #E1E1E1",
"2X c #E2E1E0",
"3X c gray89",
"4X c #E4E4E4",
"5X c #EAEAEA",
"6X c #EEEDED",
"7X c #EEEEEF",
"8X c None",
/* pixels */
"8X8X8X8X8X8X8X8X8X8X8X8X8X8X8X8X8X8X8X8X8X8X8X8X8X8X8X8X8X8X8X8X8X8X8X8X8X8X8X8X8X8X8X8X8X8X8X8X8X8X",
"8X8X8X8X8X8X8X8X8X8X8X8X8X8X8X8X8X8X8X8X8X8X8X8X8X8X8X8X8X8X8X8X8X8X8X8X8X8X8X8X8X8X8X8X8X8X8X8X8X8X",
"8X8X8X8X8X8X8X8X8X8X8X8X8X8X8X8X8X8X8X8X8X$X-X8XT.8X8X8X8X8X8X8X8X8X8X8X8X8X8X8X8X8X8X8X8X8X8X8X8X8X",
"8X8X8X8X8X8X8X8X8X8X8X8X8X8X8X8X8X8X8X{.8X{ ..}.b P.4X8X8X8X8X8X8X8X8X8X8X8X8X8X8X8X8X8X8X8X8X8X8X8X",
"8X8X8X8X8X8X8X8X8X8X8X8X8X8X8X8X8X8X%XH I.L I ! m W W.[ <X8X8X8X8X8X8X8X8X8X8X8X8X8X8X8X8X8X8X8X8X8X",
"8X8X8X8X8X8X8X8X8X8X8X8X8X8X8X8X8X>XR.M l d M > b L S v ].[.8X8X8X8X8X8X8X8X8X8X8X8X8X8X8X8X8X8X8X8X",
"8X8X8X8X8X8X8X8X8X8X8X8X8X8X8X8X8XE.i j M p l r g n $ c K D Q.8X8X8X8X8X8X8X8X8X8X8X8X8X8X8X8X8X8X8X",
"8X8X8X8X8X8X8X8X8X8X8X8X8X8X8X8X8X} 4 t s 5 u w y p 7 f e m Y.8X8X8X8X8X8X8X8X8X8X8X8X8X8X8X8X8X8X8X",
"8X8X8X8X8X8X8X8X8X8X8X8X8X8X8X8X6XQ . @ % # * = - ; 9 0 q a U.8X8X8X8X8X8X8X8X8X8X8X8X8X8X8X8X8X8X8X",
"8X8X8X8X8X8X8X8X8X8X8X8X8X8X8X8X1XA B Z e.r.t.u.s.d.h.V.C.g.`.8X8X8X8X8X8X8X8X8X8X8X8X8X8X8X8X8X8X8X",
"8X8X8X8X8X8X8X8X8X8X8X8X8X8X8X8X=Xj.N.v.M.m.n.D.F.H.J.K.L.G.'.8X8X8X8X8X8X8X8X8X8X8X8X8X8X8X8X8X8X8X",
"8X8X8X8X8X8X8X8X8X8X8X8X8X8X8X8X;Xk.B.b.z.p.i.a.x.c.Z.A.S.f.8X8X8X8X8X8X8X8X8X8X8X8X8X8X8X8X8X8X8X8X",
"8X8X8X8X8X8X8X8X8X8X8X8X8X8X8X8X3Xl.y.] E ( ^ T ' :.;.) / @.8X8X8X8X8X8X8X8X8X8X8X8X8X8X8X8X8X8X8X8X",
"8X8X8X8X8X8X8X8X8X8X8X8X8X8X8X8X7X^.%.,.&.=.-.o.X.3.>.+._ /.8X8X8X8X8X8X8X8X8X8X8X8X8X8X8X8X8X8X8X8X",
"8X8X8X8X8X8X8X8X8X8X8X8X8X8X8X8X:X|.4.7.9.@X,X!.*.+XoX&X~.8X8X8X8X8X8X8X8X8X8X8X8X8X8X8X8X8X8X8X8X8X",
"8X8X8X8X8X8X8X8X8X8X8X8X8X8X8X8X2X XOX6.q.w.0.8.1.#.(.#XXX8X8X8X8X8X8X8X8X8X8X8X8X8X8X8X8X8X8X8X8X8X",
"8X8X8X8X8X8X8X8X8X8X8X8X8X8X8X8X8X*X.X).5.2.O.N k z U $.8X8X8X8X8X8X8X8X8X8X8X8X8X8X8X8X8X8X8X8X8X8X",
"8X8X8X8X8X8X8X8X8X8X8X8X8X8X8X8X8X8X8X5X_.J o X 8 h G P 8X8X8X8X8X8X8X8X8X8X8X8X8X8X8X8X8X8X8X8X8X8X",
"8X8X8X8X8X8X8X8X8X8X8X8X8X8X8X8X8X8X8X8X8X8X .O + < ~ 8X8X8X8X8X8X8X8X8X8X8X8X8X8X8X8X8X8X8X8X8X8X8X",
"8X8X8X8X8X8X8X8X8X8X8X8X8X8X8X8X8X8X8X8X8X8X| 2 : 6 8X8X8X8X8X8X8X8X8X8X8X8X8X8X8X8X8X8X8X8X8X8X8X8X",
"8X8X8X8X8X8X8X8X8X8X8X8X8X8X8X8X8X8X8X8X8X8XF 3 , 1 8X8X8X8X8X8X8X8X8X8X8X8X8X8X8X8X8X8X8X8X8X8X8X8X",
"8X8X8X8X8X8X8X8X8X8X8X8X8X8X8X8X8X8X8X8X8X8X<.` V C R 8X8X8X8X8X8X8X8X8X8X8X8X8X8X8X8X8X8X8X8X8X8X8X",
"8X8X8X8X8X8X8X8X8X8X8X8X8X8X8X8X8X8X8X8X8X8X8XY & x 8X8X8X8X8X8X8X8X8X8X8X8X8X8X8X8X8X8X8X8X8X8X8X8X",
"8X8X8X8X8X8X8X8X8X8X8X8X8X8X8X8X8X8X8X8X8X8X8X8X  8X8X8X8X8X8X8X8X8X8X8X8X8X8X8X8X8X8X8X8X8X8X8X8X8X",
"8X8X8X8X8X8X8X8X8X8X8X8X8X8X8X8X8X8X8X8X8X8X8X8X8X8X8X8X8X8X8X8X8X8X8X8X8X8X8X8X8X8X8X8X8X8X8X8X8X8X",
"8X8X8X8X8X8X8X8X8X8X8X8X8X8X8X8X8X8X8X8X8X8X8X8X8X8X8X8X8X8X8X8X8X8X8X8X8X8X8X8X8X8X8X8X8X8X8X8X8X8X",
"8X8X8X8X8X8X8X8X8X8X8X8X8X8X8X8X8X8X8X8X8X8X8X8X8X8X8X8X8X8X8X8X8X8X8X8X8X8X8X8X8X8X8X8X8X8X8X8X8X8X",
"8X8X8X8X8X8X8X8X8X8X8X8X8X8X8X8X8X8X8X8X8X8X8X8X8X8X8X8X8X8X8X8X8X8X8X8X8X8X8X8X8X8X8X8X8X8X8X8X8X8X"
};
