/* XPM */
static char *_3359_bbb877a42cdca110f5ef88602d19eca1fb10a4e2d65c52c6b7262c17696c1904[] = {
/* columns rows colors chars-per-pixel */
"50 28 153 2 ",
"   c #1B1817",
".  c #1C1B1C",
"X  c #151313",
"o  c #201E1E",
"O  c #041C25",
"+  c #1E1F21",
"@  c #1E2225",
"#  c #1F2628",
"$  c #252425",
"%  c #282727",
"&  c #282728",
"*  c #222A2C",
"=  c #2C2B2B",
"-  c #2C3435",
";  c #343333",
":  c #393635",
">  c #373738",
",  c #313838",
"<  c #3C3C3C",
"1  c #44403B",
"2  c #604D36",
"3  c #06445F",
"4  c #184B5F",
"5  c #3F4D4D",
"6  c #074E71",
"7  c #325C64",
"8  c #444444",
"9  c #4E4840",
"0  c #4B4B4B",
"q  c #514E4B",
"w  c #5B5446",
"e  c #485A54",
"r  c #545353",
"t  c #585757",
"y  c gray37",
"u  c #6C5F4D",
"i  c #6B6145",
"p  c #7A6244",
"a  c #6B6650",
"s  c #736857",
"d  c #7A725D",
"f  c #497079",
"g  c #626262",
"h  c #647171",
"j  c #757575",
"k  c #7A7A7A",
"l  c #815F3D",
"z  c #9D7A4B",
"x  c #886F58",
"c  c #827059",
"v  c #8F7C5E",
"b  c #947A58",
"n  c #85674A",
"m  c #807667",
"M  c #BF854F",
"N  c #BE8A53",
"B  c #93826A",
"V  c #8F897F",
"C  c #968672",
"Z  c #988470",
"A  c #9E987D",
"S  c #9B9479",
"D  c #B2946E",
"F  c #EA9D5A",
"G  c #C19965",
"H  c #C09D72",
"J  c #D5A764",
"K  c #C6A87D",
"L  c #D5AA75",
"P  c #E1AC6C",
"I  c #EBAA69",
"U  c #E5AD70",
"Y  c #F5BB73",
"T  c #FEC475",
"R  c #065880",
"E  c #055A8A",
"W  c #045F94",
"Q  c #367D8C",
"!  c #0372A2",
"~  c #046EBE",
"^  c #0E7AB8",
"/  c #007CC5",
"(  c #0386B1",
")  c #0499BB",
"_  c #1AA2AE",
"`  c #08A6B2",
"'  c #06A5BE",
"]  c #1EA4BC",
"[  c #478A93",
"{  c #0287CC",
"}  c #048DC8",
"|  c #0498CB",
" . c #0084D5",
".. c #0080D8",
"X. c #008BDB",
"o. c #0093DD",
"O. c #07ADC2",
"+. c #09B2C2",
"@. c #07A3D0",
"#. c #06AFD4",
"$. c #09BBD6",
"%. c #0096E0",
"&. c #00B1EC",
"*. c #02C5F5",
"=. c #04D7FA",
"-. c #05D6E9",
";. c #05E4FF",
":. c #878888",
">. c #8C8C8C",
",. c #858484",
"<. c #95918B",
"1. c #929191",
"2. c #9C9C9C",
"3. c #A39C94",
"4. c #A79E95",
"5. c #BFA780",
"6. c #B6A089",
"7. c #AEA69B",
"8. c #B8AB9A",
"9. c #8FB4B7",
"0. c #8AA8AA",
"q. c gray64",
"w. c #ABABAB",
"e. c #B4B4B4",
"r. c #BCBCBC",
"t. c #BBB8B5",
"y. c #CDAB80",
"u. c #CEB591",
"i. c #C6B79F",
"p. c #CAB99C",
"a. c #D9BE95",
"s. c #C4B9AC",
"d. c #E5C089",
"f. c #ECCA96",
"g. c #E0C7A4",
"h. c #E9CDA1",
"j. c #AFBEC0",
"k. c #BFC0C0",
"l. c #C3C3C3",
"z. c #C8C5C1",
"x. c #C9C8C6",
"c. c #CCCCCC",
"v. c #D1CDC6",
"b. c #CED2D2",
"n. c #D4D4D4",
"m. c #D6D8D7",
"M. c #DCDCDC",
"N. c #DBD8D5",
"B. c #E9E0D7",
"V. c #E4E3E3",
"C. c #ECECEC",
"Z. c #EEEFF0",
"A. c #F3F3F3",
/* pixels */
"A.A.A.A.A.A.A.A.A.A.A.A.A.A.A.A.A.A.A.A.A.A.A.A.A.A.A.A.A.A.A.A.A.A.A.A.A.A.A.A.A.A.A.A.A.A.A.A.A.A.",
"A.A.A.A.A.A.A.A.A.A.A.A.A.A.A.A.A.A.A.A.A.A.A.A.A.A.A.A.A.A.A.A.A.A.A.A.A.A.A.A.A.A.A.A.A.A.A.A.A.A.",
"A.A.A.A.A.A.A.A.A.A.A.A.A.A.A.A.A.A.A.A.A.k.b.C.>.M.A.A.A.A.A.A.A.A.A.A.A.A.A.A.A.A.A.A.A.A.A.A.A.A.",
"A.A.A.A.A.A.A.A.A.A.A.A.A.A.A.A.A.A.C.e.C.j k t.< ,.V.m.A.A.A.A.A.A.A.A.A.A.A.A.A.A.A.A.A.A.A.A.A.A.",
"A.A.A.A.A.A.A.A.A.A.A.A.A.A.A.A.A.A.c.0 ,.0 r t < q 2.g V.A.A.A.A.A.A.A.A.A.A.A.A.A.A.A.A.A.A.A.A.A.",
"A.A.A.A.A.A.A.A.A.A.A.A.A.A.A.A.A.V.1.< > = < $ < 0 8 < q.w.n.A.A.A.A.A.A.A.A.A.A.A.A.A.A.A.A.A.A.A.",
"A.A.A.A.A.A.A.A.A.A.A.A.A.A.A.A.A.1.= > < = > = ; < . < 0 8 2.A.A.A.A.A.A.A.A.A.A.A.A.A.A.A.A.A.A.A.",
"A.A.A.A.A.A.A.A.A.A.A.A.A.A.A.A.A.j & = ; & = & = = $ ; % 8 >.A.A.A.A.A.A.A.A.A.A.A.A.A.A.A.A.A.A.A.",
"A.A.A.A.A.A.A.A.A.A.A.A.A.A.A.A.C.t   . o . + $ # # * * * - :.A.A.A.A.A.A.A.A.A.A.A.A.A.A.A.A.A.A.A.",
"A.A.A.A.A.A.A.A.A.A.A.A.A.A.A.A.V.7 3 6 R E W ! ( ) O.+.+.` 0.A.A.A.A.A.A.A.A.A.A.A.A.A.A.A.A.A.A.A.",
"A.A.A.A.A.A.A.A.A.A.A.A.A.A.A.A.b.] o. .X.X...%.&.*.=.=.;.-.9.A.A.A.A.A.A.A.A.A.A.A.A.A.A.A.A.A.A.A.",
"A.A.A.A.A.A.A.A.A.A.A.A.A.A.A.A.m.] o. .{ ^ ~ / } | | #.$._ k.A.A.A.A.A.A.A.A.A.A.A.A.A.A.A.A.A.A.A.",
"A.A.A.A.A.A.A.A.A.A.A.A.A.A.A.A.V.[ Q f e p a w d A S a i c M.A.A.A.A.A.A.A.A.A.A.A.A.A.A.A.A.A.A.A.",
"A.A.A.A.A.A.A.A.A.A.A.A.A.A.A.A.C.4.M F N C Z n l K D x s 4.A.A.A.A.A.A.A.A.A.A.A.A.A.A.A.A.A.A.A.A.",
"A.A.A.A.A.A.A.A.A.A.A.A.A.A.A.A.N.K L I Y g.B.3.Z f.a.c.4.c.A.A.A.A.A.A.A.A.A.A.A.A.A.A.A.A.A.A.A.A.",
"A.A.A.A.A.A.A.A.A.A.A.A.A.A.A.A.V.u.d.P T T Y U G v 5.f.s.M.A.A.A.A.A.A.A.A.A.A.A.A.A.A.A.A.A.A.A.A.",
"A.A.A.A.A.A.A.A.A.A.A.A.A.A.A.A.A.v.p.6.P J z 2 : : 0 m >.C.V.C.A.A.A.A.A.A.A.A.A.A.A.A.A.A.A.A.A.A.",
"A.A.A.A.A.A.A.A.A.A.A.A.A.A.A.A.A.A.Z.C.7.9   . & ; 8 r q.c.>.M.A.A.A.A.A.A.A.A.A.A.A.A.A.A.A.A.A.A.",
"A.A.A.A.A.A.A.A.A.A.A.A.A.A.A.A.A.A.A.A.A.n.k     $ y s.w.k w.A.A.A.A.A.A.A.A.A.A.A.A.A.A.A.A.A.A.A.",
"A.A.A.A.A.A.A.A.A.A.A.A.A.A.A.A.A.A.A.A.A.Z.k $ $ $ k j.j >.M.A.A.A.A.A.A.A.A.A.A.A.A.A.A.A.A.A.A.A.",
"A.A.A.A.A.A.A.A.A.A.A.A.A.A.A.A.A.A.A.A.A.x.8 $ @ & 8 v <.s.A.A.A.A.A.A.A.A.A.A.A.A.A.A.A.A.A.A.A.A.",
"A.A.A.A.A.A.A.A.A.A.A.A.A.A.A.A.A.A.A.A.A.8.G s 4 5 e b z.A.A.A.A.A.A.A.A.A.A.A.A.A.A.A.A.A.A.A.A.A.",
"A.A.A.A.A.A.A.A.A.A.A.Z.A.A.A.A.A.A.A.A.A.s.H w O , h t.Z.A.A.A.A.A.A.A.A.A.A.A.A.A.A.A.A.A.A.A.A.A.",
"A.A.A.A.A.A.A.A.A.A.A.A.A.A.A.A.A.C.V.V.N.b.e.> X ; w.c.b.m.M.C.C.C.Z.A.A.A.A.A.A.A.A.A.A.A.A.A.A.A.",
"A.A.A.A.A.A.A.A.A.A.A.A.A.A.A.Z.C.M.n.l.e.w.2.< > > g 2.w.e.j.n.M.V.A.A.A.A.A.A.A.A.A.A.A.A.A.A.A.A.",
"A.A.A.A.A.A.A.A.A.A.A.A.A.A.Z.A.C.V.N.x.k.e.w.q.2.2.2.w.e.t.x.n.M.V.C.A.A.A.A.A.A.A.A.A.A.A.A.A.A.A.",
"A.A.A.A.A.A.A.A.A.A.A.A.A.A.A.A.Z.Z.C.C.V.M.N.n.n.n.n.n.M.V.V.C.Z.A.A.A.A.A.A.A.A.A.A.A.A.A.A.A.A.A.",
"A.A.A.A.A.A.A.A.A.A.A.A.A.A.Z.A.A.A.A.A.A.A.A.A.A.A.A.A.A.A.A.A.A.A.A.A.A.A.A.A.A.A.A.A.A.A.A.A.A.Z."
};
