/* XPM */
static char *_21731d816a0477cac05d9d01e5eef29FGMIrEL1MU44L936[] = {
/* columns rows colors chars-per-pixel */
"54 54 15 1 ",
"  c None",
". c black",
"X c #503018",
"o c #701028",
"O c #384040",
"+ c #784040",
"@ c #C03838",
"# c #885028",
"$ c #F06848",
"% c #C89800",
"& c #D8A078",
"* c #406888",
"= c #F8D0B8",
"- c #B8B0D0",
"; c #E8E8F8",
/* pixels */
"                                                      ",
"                 oooooooooooooo                       ",
"                 oooooooooooooo                       ",
"             ..oo@@$$$$$$$$$$@@oooo                   ",
"             ..oo@@$$$$$$$$$$@@oooo                   ",
"           ..@@@@$$$$$$$$$$$$$$@@@@oo                 ",
"           ..@@@@$$$$$$$$$$$$$$@@@@oo                 ",
"           ..@@@@$$$$$$$$$$$$$$@@;;oo                 ",
"           ..@@@@$$$$$$$$$$$$$$@@;;oo                 ",
"         oo@@@@@@$$$$$$$$$$$$$$@@;;--OO               ",
"         oo@@@@@@$$$$$$$$$$$$$$@@;;--OO               ",
"         ..@@@@@@@@$$$$$$$$$$@@@@;;@@**OOOO           ",
"         ..@@@@@@@@$$$$$$$$$$@@@@;;@@**OOOO           ",
"         ..@@@@@@@@@@@@@@@@@@@@@@----**;;;;..         ",
"         ..@@@@@@@@@@@@@@@@@@@@@@----**;;;;..         ",
"         ..@@@@@@@@@@@@@@@@@@@@@@@@--**;;;;;;..       ",
"         ..@@@@@@@@@@@@@@@@@@@@@@@@--**;;;;;;..       ",
"         ..oo@@@@@@@@@@@@@@@@@@@@@@oo;;;;;;;;..       ",
"         ..oo@@@@@@@@@@@@@@@@@@@@@@oo;;;;;;;;..       ",
"           ....oo@@@@@@@@@@@@@@@@oo----;;;;;;..       ",
"           ....oo@@@@@@@@@@@@@@@@oo----;;;;;;..       ",
"         ..OOOO..............oooo----------..         ",
"         ..OOOO..............oooo----------..         ",
"       ..OOOOOOOOOOOOOOOOOO&&;;..++++......           ",
"       ..OOOOOOOOOOOOOOOOOO&&;;..++++......           ",
"         ....OOOOOO##&&OO&&&&;;..====++               ",
"         ....OOOOOO##&&OO&&&&;;..====++               ",
"             ....OO##&&&&&&==========&&               ",
"             ....OO##&&&&&&==========&&               ",
"               ......OO++&&&&&&==&&++                 ",
"               ......OO++&&&&&&==&&++                 ",
"                   XXXXOO++&&++....                   ",
"                   XXXXOO++&&++....                   ",
"               XXXX%%##%%%%;;**                       ",
"               XXXX%%##%%%%;;**                       ",
"             XX%%##%%..OOOO%%;;OO                     ",
"             XX%%##%%..OOOO%%;;OO                     ",
"             XX%%##%%ooOOOO@@--OO                     ",
"             XX%%##%%ooOOOO@@--OO                     ",
"             ..######oo&&..@@--OO                     ",
"             ..######oo&&..@@--OO                     ",
"             ..######..&&==..OO                       ",
"             ..######..&&==..OO                       ",
"               ....**..====..OO                       ",
"               ....**..====..OO                       ",
"                   ..**....OO                         ",
"                   ..**....OO                         ",
"                   OOOO****..                         ",
"                   OOOO****..                         ",
"                     ..@@@@@@..                       ",
"                     ..@@@@@@..                       ",
"                       ......                         ",
"                       ......                         ",
"                                                      "
};
