/* XPM */
static char *_4162_a813e496b9bfa5d9a6bbe9e92090dcd25eabd1510c49da62f361d6e8e31dd91e[] = {
/* columns rows colors chars-per-pixel */
"100 104 71 1 ",
"  c #010101",
". c #0D0D0D",
"X c #130B0B",
"o c #1B0B0B",
"O c #131313",
"+ c #1B1B1B",
"@ c #281111",
"# c #331616",
"$ c #3C1A1A",
"% c #242424",
"& c #2C2C2C",
"* c #2F3131",
"= c #333333",
"- c #3B3535",
"; c #3D3D3D",
": c #411B1B",
"> c #582525",
", c #5F2C2C",
"< c #423737",
"1 c #463838",
"2 c #4B3939",
"3 c #543B3B",
"4 c #5B3D3D",
"5 c #6A2D2D",
"6 c #633E3E",
"7 c #733030",
"8 c #7A3E3E",
"9 c #434343",
"0 c #4C4C4C",
"q c #545454",
"w c #5C5C5C",
"e c #664040",
"r c #6B4141",
"t c #744343",
"y c #7C4545",
"u c #646464",
"i c #6B6B6B",
"p c gray45",
"a c #7C7C7C",
"s c #963E3E",
"d c #844747",
"f c #8B4949",
"g c #944B4B",
"h c #9D4D4D",
"j c #A24E4E",
"k c #B74D4D",
"l c #A75050",
"z c #AA5050",
"x c #B45353",
"c c #BD5555",
"v c #C25656",
"b c #CE5656",
"n c #C75858",
"m c #CA5959",
"M c #D05757",
"N c #D45B5B",
"B c #DB5D5D",
"V c #E15E5E",
"C c #838383",
"Z c #8C8C8C",
"A c #959595",
"S c gray61",
"D c #A3A3A3",
"F c #ACACAC",
"G c #B1B1B1",
"H c #BBBBBB",
"J c #C4C4C4",
"K c #CCCCCC",
"L c #D3D3D3",
"P c #D8D8D8",
"I c None",
/* pixels */
"IIIIIIIIIIIIIIIIIIIIIIIIIIIIIIIIII           IIIIIIIIIIIIIIIIIIIIIIIIIIIIIIIIIIIIIIIIIIIIIIIIIIIIIII",
"IIIIIIIIIIIIIIIIIIIIIIIIIIIIII                   IIIIIIIIIIIIIIIIIIIIIIIIIIIIIIIIIIIIIIIIIIIIIIIIIII",
"IIIIIIIIIIIIIIIIIIIIIIIIIIII         ..O..         IIIIIIIIIIIIIIIIIIIIIIIIIIIIIIIIIIIIIIIIIIIIIIIII",
"IIIIIIIIIIIIIIIIIIIIIIIIII      +-wCAFGGFFSCw-O      IIIIIIIIIIIIIIIIIIIIIIIIIIIIIIIIIIIIIIIIIIIIIII",
"IIIIIIIIIIIIIIIIIIIIIIII     O9CGPPPPPPPPPPPPLGa9.     IIIIIIIIIIIIIIIIIIIIIIIIIIIIIIIIIIIIIIIIIIIII",
"IIIIIIIIIIIIIIIIIIIIIII    OwFPPPPPPPPPPPPPPPPPPKFwO    IIIIIIIIIIIIIIIIIIIIIIIIIIIIIIIIIIIIIIIIIIII",
"IIIIIIIIIIIIIIIIIIIII    .qGPPPPPPPPPPPPPPPPPPPPPPPF0     IIIIIIIIIIIIIIIIIIIIIIIIIIIIIIIIIIIIIIIIII",
"IIIIIIIIIIIIIIIIIIII    %ALPPPPPPPPPPPPPPPPPPPPPPPPPPZ%    IIIIIIIIIIIIIIIIIIIIIIIIIIIIIIIIIIIIIIIII",
"IIIIIIIIIIIIIIIIIII    0GPPPPPPPPPPPPPPPLPPPPPPPPPPPPPG9    IIIIIIIIIIIIIIIIIIIIIIIIIIIIIIIIIIIIIIII",
"IIIIIIIIIIIIIIIIII    uKPPPPPPPPPPPPPPPPPPPPPPPPPPPPPPPKw    IIIIIIIIIIIIIIIIIIIIIIIIIIIIIIIIIIIIIII",
"IIIIIIIIIIIIIIIII    iKPPPPPPLPPPPPPPPPLPPPPPLPPPPPPPPPPKw    IIIIIIIIIIIIIIIIIIIIIIIIIIIIIIIIIIIIII",
"IIIIIIIIIIIIIIIII   uLPPPPPPPPPPPPPPPPPPLPPPPPPPPPPPPPPPPLw   IIIIIIIIIIIIIIIIIIIIIIIIIIIIIIIIIIIIII",
"IIIIIIIIIIIIIIII   9KPPPPPPPPPPPPPPPPPPPPPLPPPPPPPPPPPPPPHp.   IIIIIIIIIIIIIIIIIIIIIIIIIIIIIIIIIIIII",
"IIIIIIIIIIIIIII   &HPPPPPPPPPPPLPPPPPPPPPPPPPPPPPPPPPPHZ0+      IIIIIIIIIIIIIIIIIIIIIIIIIIIIIIIIIIII",
"IIIIIIIIIIIIIII  .APPPPPPPPPPPPPPPPPPPPPPPPPPPPPPPPHZq+      .+&IIIIIIIIIIIIIIIIIIIIIIIIIIIIIIIIIIII",
"IIIIIIIIIIIIII   qPPPPPPPPPPPPPPPPPPPPPPPPPPPPPPJZ0+      O-w0;9;IIIIIIIIIIIIIIIIIIIIIIIIIIIIIIIIIII",
"IIIIIIIIIIIIII  OGPPPPPPPPPPLPPLPPPPPPPPPPPPPHZ0+      +=qiaCi9;;IIIIIIIIIIIIIIIIIIIIIIIIIIIIIIIIIII",
"IIIIIIIIIIIII   uPPPPPPPPPPPPPPPPPPPPPPPPPJAq%      O=qpaCaaaaw;;;IIIIIIIIIIIIIIIIIIIIIIIIIIIIIIIIII",
"IIIIIIIIIIIII  OGPPPPPPPPPPLPPPPPPPPPPPPD0+      O-qiaaaaaaaaai9;9IIIIIIIIIIIIIIIIIIIIIIIIIIIIIIIIII",
"IIIIIIIIIIII   0PPPPPPPPPPPPPPPPPPPPPPPPi     O=qiaCaaaaaaaaaaaq;;;IIIIIIIIIIIIIIIIIIIIIIIIIIIIIIIII",
"IIIIIIIIIIII   ZPPPPPPPPPPPPPPPPPPPLPPPPA   &qpaCaaaaaaaaaaaaaau;;9IIIIIIIIIIIIIIIIIIIIIIIIIIIIIIIII",
"IIIIIIIIIIII  +HPPPPPPPPPPPPPPPPPPPPPPPPH+ .wCaaaaaaaaaaaaaaaaCi9;;IIIIIIIIIIIIIIIIIIIIIIIIIIIIIIIII",
"IIIIIIIIIIII  ;LPPPPPPPPPPLPPPPLPPPPPPPPK-  0aaaaaaaaaaaaaaaaaaa0;;IIIIIIIIIIIIIIIIIIIIIIIIIIIIIIIII",
"IIIIIIIIIII   iPPPPPPPLPPPPPPPPPPPPPPPPPPu  =aaaaaaaaaaaaaaaaaaaw;;9IIIIIIIIIIIIIIIIIIIIIIIIIIIIIIII",
"IIIIIIIIIII   CPPPPPPPPPPPPPPPPPPPPPPLPPPA  +paaaaaaaaaaaaaaaaaau;;;IIIIIIIIIIIIIIIIIIIIIIIIIIIIIIII",
"IIIIIIIIIII  .DPPPPPPPPPPPPLPPPPPPPPPPPPPGO .uaaaaaaaaaaaaaaaaaCi9;;IIIIIIIIIIIIIIIIIIIIIIIIIIIIIIII",
"IIIIIIIIIII  .GPPPPPPLPPPPPPPPPPLPPPPPPPPK*  ;wwwuuuuuuuwuuuuuuiw---IIIIIIIIIIIIIIIIIIIIIIIIIIIIIIII",
"IIIIIIIIIII  OHPPPPLPPPPPPPPPLPPPPPPPPPPPPq    .    . . . ....... . IIIIIIIIIIIIIIIIIIIIIIIIIIIIIIII",
"IIIIIIIIIII  OHPPPPPPPPPPPPPPPPPPPPPPLPPPPC                         IIIIIIIIIIIIIIIIIIIIIIIIIIIIIIII",
"IIIIIIIIIII  OHPPPPPPPPPPPPPPPPPPPPPPPPPPPG-&&&%&%%%%%+%+++++O+O.   IIIIIIIIIIIIIIIIIIIIIIIIIIIIIIII",
"IIIIIIIIIII  .GPPPPPPPLPPPPPLPPPPPLPPPPPPPPKKKKKKKKJJJJJJJJHJHHHA.  IIIIIIIIIIIIIIIIIIIIIIIIIIIIIIII",
"IIIIIIIIIII  .DPPPLPPPPPLPPPPPPPPPPPPPPPPPPPPPPPPPPPPPPPPPPPPPPPS   IIIIIIIIIIIIIIIIIIIIIIIIIIIIIIII",
"IIIIIIIIIII   ZPPPPPPPPPPPPPPPPPPLPPLPPPPPPPLPPLPPPPPLPPPPPPPPPPC   IIIIIIIIIIIIIIIIIIIIIIIIIIIIIIII",
"IIIIIIIIIII   uPLPPPPPPPPPPPPPPPPPPPPPPPPPPPPPPPPPPPPPPPPPPPPPPPw   IIIIIIIIIIIIIIIIIIIIIIIIIIIIIIII",
"IIIIIIIIIIII  9LPPPPLPPPPPPPPPPPPPPPPPPPPPPPPPPPLPPPPPPPPPPPPPPK-  IIIIIIIIIIIIIIIIIIIIIIIIIIIIIIIII",
"IIIIIIIIIIII  +HPPPPPPPPPLPPLPPLPPPPLPPPPPPLPPPPPPPPPPPPPPPLPPPHO  IIIIIIIIIIIIIIIIIIIIIIIIIIIIIIIII",
"IIIIIIIIIIII   ZPPPPPPPPPPPPPPPPPPPPPPPPPPPPPPPPPPPPPPPPPPPPPPPC   IIIIIIIIIIIIIIIIIIIIIIIIIIIIIIIII",
"IIIIIIIIIIII   0PPPPPPLPPPPPPPPPPPPPPPPPPPPPPPPPPPLPPPPLPPPPPPL9   IIIIIIIIIIIIIIIIIIIIIIIIIIIIIIIII",
"IIIIIIIIIIIII  OGPPPPPPPPLPPPPPLPLPPLPPPPPPLPPLPPPPPPPPPPPPPPPF.  IIIIIIIIIIIIIIIIIIIIIIIIIIIIIIIIII",
"IIIIIIIIIIIII   uPPPPPPPPPPPPPPPPPPPPPPPPPPPPPPPPPPPPPPPPPPPPPw   IIIIIIIIIIIIIIIIIIIIIIIIIIIIIIIIII",
"IIIIIIIIIIIIII  +GPPPPPPPPPPPPPPPPPPLPPPPPPPPPPPPPPPPPPPPPPPPGO  IIIIIIIIIIIIIIIIIIIIIIIIIIIIIIIIIII",
"IIIIIIIIIIIIII   qLPPPPPPPPPPLPPPPPPPPPPPPPPPPPPPPPPPPPPPPPPP0   IIIIIIIIIIIIIIIIIIIIIIIIIIIIIIIIIII",
"IIIIIIIIIIIIIII  .APPPPPPPPPPPPPPPPPPPPPPPPLPPPPPPPPPPPPPPLPZ.  IIIIIIIIIIIIIIIIIIIIIIIIIIIIIIIIIIII",
"IIIIIIIIIIIIIII+%&;waDKPPPPPPPPPPLPPPPPPPPPPPPPPPPPPPPPPPPPG%   IIIIIIIIIIIIIIIIIIIIIIIIIIIIIIIIIIII",
"IIIIIIIIIIIII======**-qDLPPPPPPPPPPPPPPPPPPPPPPPPPPPPPPPPPJ9   IIIIIIIIIIIIIIIIIIIIIIIIIIIIIIIIIIIII",
"IIIIIIIIIIII==*-1443-**;CKPPPPPPPPPPPPPPPPPPPPPPPPPPPPPPPKq   IIIIIIIIIIIIIIIIIIIIIIIIIIIIIIIIIIIIII",
"IIIIIIIIII====4hnNBNxy-==aLPPPPPPPPLPPPLPPPPPKHFSDDDDSDSDiOOOOIIIIIIIIIIIIIIIIIIIIIIIIIIIIIIIIIIIIII",
"IIIIIIIII-==<fBVVVVVVBl1*=ZPPPPPPPPPPPPPPPKGa0;===-=====-========IIIIIIII==IIIIIIIIIIIIIIIIIIIIIIIII",
"IIIIIIIII==1lVVVBVVVVVVx1*;FPPPPPPPPPPPPPGi;=**==========--===*=-==IIIIII==IIIIIIIIIIIIIIIIIIIIIIIII",
"IIIIIIII==1zVVVVVVVVVVVVh-*uKPPPPPPPPPPPD0**-3yhjjjllllhjhjljhd4-=*=IIIII==II==IIIIIIIIII=======IIII",
"IIIIIII==-hVVVVVVVVVVVVVBr*-AKHGGFAZZaii9==6lNVVVVVVVVVVVVVVVVVBct-==IIII=-II==IIIIIIIII====-**==III",
"IIIIII===yBVVVVVVVVVVVVVVx-=-%+O...    &=-dBVVVVVVVVVVVVVVVVVVVVVBj<==III==II==II==IIII=*-4flg4-==II",
"IIIIII==3mVVVVVVVVVVVVVVVVe**.        +==yBVVVVVVVVVVVVVVVVVVVVVVVVj-==II==II==II=-III==-dNVVVBd-==I",
"IIIII-==hVVVVVVVVVVVVVVVVVj-*+.O+%&-;9==2mVVVVVVVVVVVVVVVVVVVVVVVVVBe==II==II==II==III==eNVVVVVB6*=I",
"IIIII==3MVVVVVVVVBVVVVVBVVm1*qFHHKKKPG;=yVVVVBVVVVVVVVVVVVVVVVVVVVVVj==================-lVVVVVVVh==I",
"IIIII==hVVVVBVVVVVVVVVVVVVBe*0KPPPPPPF-=gVVVVVVVVVVVVVVVVVVVVVVVVVVVc-========-========-xVVVVVVVx-==",
"IIII==2mVVVVVBVVVVVVBVVVVVVd*;HPPPPPPG-*fVVVBVVVVVVVVVVVVVVVVVVVVVVVx==================-lVVVVVVVl==I",
"IIII==yVVVVVVVVVVVVVVVVVBVVl==DPPPPPPJ9*eBVVVVVVVVVVVVVVVBVVVVVBVVVVf==II==II==I===III==yBVVVVVVt*-I",
"IIII==lVVVVVVVVVVVVVVVVVVVVx-*ZPPPPPPLi*-lVBVVVVVVVVVVVVVVVVVVVVVVVm2==II==II==II==III==-hVVVVVh-==I",
"III==2mVVVVVVVVVVVVVVVVVVVVc-*CPPPPPPPF;=3cVVVVVVVVBVVVVVVVVVVVVBMv6==III-=II==II==IIII=--yxnxy-==II",
"III==6BVBVVVVVVVVVBVVVVVVVVn<*aPPPPPPPLa=*2lBVVVVBVVVVVVVVVVVVk7$@o.O+III==II==II==IIIII===---===III",
"III==dVVVVVVVVVBVVVVVBVVVVVn<*pPPPPPPPPKi-=-6xVVVVVBNBBNBVVVM5X        II==II==IIIIIIIIII=======IIII",
"III==jVVVVVVVVVVVVVVVVVVVVVv<*pPPPPPPPLPKC;=&4NVVBg444444gVv:   O&-%.   X==II==IIIIIIIIIIIII-IIIIIII",
"II==-cVVVVVVVVVVVVVVVVVVVVVv-*CPPPPPPPPPJZ=. X#>sg-**===*3v:  OiGKKJDq.  O=IIIIIIIIIIIIIIIIIIIIIIIII",
"II==1mVVVVVVVVVVVVVVVVVVVVVc-*ZPPPPPPPLZ*        O+=&%&=*r5  %FPPPPPPPZ.  %IIIIIIIIIIIIIIIIIIIIIIIII",
"II=*3NVVVVVVVVVVVVVVVVBVVVVl==APPPPPPKu.  .+*=+    .  +==8o ODPPPPPPPPPa   IIIIIIIIIIIIIIIIIIIIIIIII",
"II==eBVVVVVVVBVVVVVBVVVVVVVg*-FPLJGSa9  .9AHKKJA0.   .&=25  iPPPPPPPPPPL9  IIIIIIIIIIIIIIIIIIIIIIIII",
"II==dVVVBVVVVVVVVVVVVVVVVVVy*;uw-%O    OaLPPPPPPKCO  &-=4$ OFPPPPPPPPPPPC   IIIIIIIIIIIIIIIIIIIIIIII",
"II=*gVVVVVVVVVVVVVVVVVVVVVBe**        .CPPPPPPLPPPZ. .&=-. *KPPPPPPPPPPPGO  IIIIIIIIIIIIIIIIIIIIIIII",
"II=-zVVVVVVVVVVVVVVVVVVBVVm2=%    .   qPPPPPPPPPPPPw  +=&  -PPPPPPPPPPPPH+  IIIIIIIIIIIIIIIIIIIIIIII",
"I==<vVVVVVVVVVVVVVVVVVVVVVv-=&%=90qO OFPPPPPPPPPPPPGO .;9. -KPPPPPPPPPPPHO  IIIIIIIIIIIIIIIIIIIIIIII",
"I==2MVVVVBVVVVBVVVVBVVVVVVl-=0iiiiw. ;PPPPPPPPPPPPPP9 .quO +JPPPPPPPPPPPS   IIIIIIIIIIIIIIIIIIIIIIII",
"I==eBVVVVVVVVVVVVBVVVVVVVVh==wiiii0  uPPLPPPPPPPPPPPi  0i&  ZPPPPPPPPPPPw  IIIIIIIIIIIIIIIIIIIIIIIII",
"I=*rVVVVVVVVVVVVVVVVVVVVVVy*-uiiii0  aPPPPPPPPPPPPPPa  9i9  =JPPPPPPPPPF+  IIIIIIIIIIIIIIIIIIIIIIIII",
"I==dVVVVVVVVVVVVVVVVVVVVVVe=;uiiii0  pPPPPPPPPPPPPPPp  +%O   qKPPPPPPPH=   IIIIIIIIIIIIIIIIIIIIIIIII",
"I==lVVVVVVVVVVVVVVVVVVVVVV3=;uiiiiq  0PPPPPPPPPPPPPPq         0FPPPPKS&   IIIIIIIIIIIIIIIIIIIIIIIIII",
"==-zVVVVVVVVVVBVVVVVVVVVVm1*9iiiiiuO %JPPPPPPPPPPPPK%     O%.  O0pai-.   IIIIIIIIIIIIIIIIIIIIIIIIIII",
"==-xVVVVVVVVVVVVVVVVVVVVVc-=qiiuuq0O  CPPPPPPPPPPPPC  &waSGKS%          IIIIIIIIIIIIIIIIIIIIIIIIIIII",
"I=-lVVVVVVVVVVVVVVVVVVVVVz-*;;*+O.    +GPPPLPPPPPPG% .APPPPPPG+       IIIIIIIIIIIIIIIIIIIIIIIIIIIIII",
"I=*eVVVVVVVBVVVVVBVVVVVVVh==.          -GPPPPPPPPH-  qLPPPPPPPq   IIIIIIIIIIIIIIIIIIIIIIIIIIIIIIIIII",
"I==-zVVVVVVVVVVVVVVVVVVVVt**.    O&;w&  %CKPPPPKZ%  &GPPPPPPPPA.  IIIIIIIIIIIIIIIIIIIIIIIIIIIIIIIIII",
"II==2zVVVVVVVVVVVVVVVVVVc1==*9uCDGKLPF*   &wppw&   &FPPPPPPPPPJ&  IIIIIIIIIIIIIIIIIIIIIIIIIIIIIIIIII",
"II==--yxmBBVVVVVVVVVVVVNr==ZKPPPPPPPPPH0.        .0HPPPPPPPPPPPi   IIIIIIIIIIIIIIIIIIIIIIIIIIIIIIIII",
"III====-24tdhxvMBVVVVVcr=*uKPPPPPPPPPPPLS0+   .+9ALPPPPPPPPPPPPD.  IIIIIIIIIIIIIIIIIIIIIIIIIIIIIIIII",
"IIIII====*=*==13etflgt1==0HPPPPPPPLPPPPPPLHDZADHPPPPPPPPPPPPPPPK-   IIIIIIIIIIIIIIIIIIIIIIIIIIIIIIII",
"IIIIIII==========**==**=wHPPPPPPPPPPPPPPPPPPPPPPPPPPPLPPPPPPPPPPa   IIIIIIIIIIIIIIIIIIIIIIIIIIIIIIII",
"IIIIIIIIIIIII=%%&-;*;;wAKPPPPPPPPPPPPLPPPPPPPPPPPPPPPPPPPPPPPPPPGO  IIIIIIIIIIIIIIIIIIIIIIIIIIIIIIII",
"IIIIIIIIIIIIII  OAFDDHKPPPPPPPPPPPPPPPPPPPPPPPPPPPPPPPPPPPPPPPPPP0   IIIIIIIIIIIIIIIIIIIIIIIIIIIIIII",
"IIIIIIIIIIIIII  -LPPPPPPPPPPPPPPPPLPPPPPPPPPPPPPPPPPPPPLPPPLPPLPPZ   IIIIIIIIIIIIIIIIIIIIIIIIIIIIIII",
"IIIIIIIIIIIII   pPPPPPPPPPPPPPPPPPPPPPPPPPPPPPPPPPPPPPPPPPPPPPPPPJ%  IIIIIIIIIIIIIIIIIIIIIIIIIIIIIII",
"IIIIIIIIIIIII  OGPPPPPPPPPPPPLPPPPPPPPPLPPPPPPPPPPPPPPPPPPPPPPPPPPw   IIIIIIIIIIIIIIIIIIIIIIIIIIIIII",
"IIIIIIIIIIII   9LPPPPPPPPPPPPPPPPPPPPPPPLPPLPPLPPPPPPPPPPPPPPPPPPPS.  IIIIIIIIIIIIIIIIIIIIIIIIIIIIII",
"IIIIIIIIIIII   aPPPPLPPPPPPPPPPPPPPPPPPPPPPPPPPPPPPPPPLPPPPPPPPPPPK&  IIIIIIIIIIIIIIIIIIIIIIIIIIIIII",
"IIIIIIIIIIII  +HPPPPPPPPLPPPPPPPPPLPPPPPPPPPPPPPPPPPPPPPPPPPPPPPPPPp   IIIIIIIIIIIIIIIIIIIIIIIIIIIII",
"IIIIIIIIIII   0PPPPPPPPPPPPPPPPPPPPPPPPPPPPPPPLPPPPLPPPPPPPPPPPPPPPF.  IIIIIIIIIIIIIIIIIIIIIIIIIIIII",
"IIIIIIIIIII   ZPPPPPPPPPPPPPPLPPPPPPPLPPLPPPPPPPPPPPPPPPPPPPPPPPPPPL;   IIIIIIIIIIIIIIIIIIIIIIIIIIII",
"IIIIIIIIIII  %HPPPPPPPPPPPPPPPPPPPPPPPPPPPPPPPPPPPPPPPPPPPPPPPPPPPPPa   IIIIIIIIIIIIIIIIIIIIIIIIIIII",
"IIIIIIIIII   qPPPPPPPPPPPPPPPPPPPPPPPPPPPPPPPPPPPPPPPPPPPPPPPPPPPPPPH+  IIIIIIIIIIIIIIIIIIIIIIIIIIII",
"IIIIIIIIII   SPPPPPPPPPPPPPPPPPPPPPPPPPPPPPPPPPPPPPPPPPPPPPPPPPPPPPPPq   IIIIIIIIIIIIIIIIIIIIIIIIIII",
"IIIIIIIIII  &KPPPPPPPPPPPPPPPPPPPPPPPPPPPPPPPPPPPPPPPPPPPPPPPPPPPPPPPA   IIIIIIIIIIIIIIIIIIIIIIIIIII",
"IIIIIIIII   0FGGFGGGGFGGHGFGGFFGGGFGGFFGGGGGHGGFFGGGGFGGHGFGGFFGGGFGGS+  IIIIIIIIIIIIIIIIIIIIIIIIIII",
"IIIIIIIII   ..O.O....O..OOO..OO.OOO..OO.....OO.OO....O..OOO..OO.OOO...    IIIIIIIIIIIIIIIIIIIIIIIIII",
"IIIIIIIII                                                                 IIIIIIIIIIIIIIIIIIIIIIIIII",
"IIIIIIII                                                                  IIIIIIIIIIIIIIIIIIIIIIIIII"
};
