/* XPM */
static char *_c72fd4de1c44b6dba912285385b0ed4a7XUmkIloeNIbVAr[] = {
/* columns rows colors chars-per-pixel */
"64 62 225 2 ",
"   c None",
".  c #3E3835",
"X  c #3A3836",
"o  c #2C3030",
"O  c #433A36",
"+  c #433C3A",
"@  c #483D39",
"#  c #40362F",
"$  c #603D33",
"%  c #56423A",
"&  c #77423F",
"*  c #78423F",
"=  c #614539",
"-  c #2D3C43",
";  c #2D3E4A",
":  c #3A3C44",
">  c #2C424D",
",  c #38434B",
"<  c #2C4353",
"1  c #2B495A",
"2  c #3D4753",
"3  c #3C4955",
"4  c #3B4C5A",
"5  c #354856",
"6  c #3E545B",
"7  c #354F62",
"8  c #2C5468",
"9  c #385467",
"0  c #2D5B72",
"q  c #395D74",
"w  c #3C637C",
"e  c #3C6478",
"r  c #434245",
"t  c #42444C",
"y  c #4A4849",
"u  c #414953",
"i  c #4A4A54",
"p  c #444B57",
"a  c #5E4E5B",
"s  c #46515C",
"d  c #594944",
"f  c #684C56",
"g  c #714A4C",
"h  c #455464",
"j  c #4A5564",
"k  c #465768",
"l  c #455B6D",
"z  c #4A5A6C",
"x  c #485A65",
"c  c #505362",
"v  c #435E75",
"b  c #45667A",
"n  c #576870",
"m  c #607077",
"M  c #8D484A",
"N  c #844645",
"B  c #974C4C",
"V  c #8A4C55",
"C  c #934C56",
"Z  c #9A4D56",
"A  c #9B575D",
"S  c #A34E53",
"D  c #A14F58",
"F  c #AC5356",
"G  c #AD545B",
"H  c #AB5D5B",
"J  c #A35A5C",
"K  c #B05257",
"L  c #B3535B",
"P  c #B45A5A",
"I  c #B95B5B",
"U  c #B95A58",
"Y  c #AD6159",
"T  c #B46355",
"R  c #BB6256",
"E  c #B4625C",
"W  c #BB625B",
"Q  c #B9695A",
"!  c #BE705F",
"~  c #B45961",
"^  c #B45760",
"/  c #956A74",
"(  c #996E75",
")  c #94717A",
"_  c #A86868",
"`  c #BD6662",
"'  c #BC6B64",
"]  c #B76866",
"[  c #BE736C",
"{  c #BD7260",
"}  c #BE7874",
"|  c #A06F73",
" . c #C25E59",
".. c #C36156",
"X. c #CB6456",
"o. c #C36359",
"O. c #C96558",
"+. c #CA695B",
"@. c #C4695C",
"#. c #D16757",
"$. c #D06758",
"%. c #D36B5B",
"&. c #D6715F",
"*. c #C56661",
"=. c #C46D65",
"-. c #C86760",
";. c #C67466",
":. c #D47362",
">. c #D87562",
",. c #DA7A65",
"<. c #DB7E69",
"1. c #C27B74",
"2. c #C67F79",
"3. c #C97F79",
"4. c #E57F71",
"5. c #DD816B",
"6. c #C3837B",
"7. c #CA817B",
"8. c #C2857B",
"9. c #D6877A",
"0. c #E2877A",
"q. c #3D6B84",
"w. c #3A6986",
"e. c #3D718C",
"r. c #3A7697",
"t. c #2D6D8D",
"y. c #367CA1",
"u. c #456D85",
"i. c #46758B",
"p. c #587585",
"a. c #4B7B93",
"s. c #447B97",
"d. c #777D92",
"f. c #437EA2",
"g. c #897783",
"h. c #3C83A9",
"j. c #3C89B3",
"k. c #55849B",
"l. c #6D869A",
"z. c #4A88A8",
"x. c #428CB5",
"c. c #4A8DB5",
"v. c #4E92B5",
"b. c #4E96BB",
"n. c #5797B7",
"m. c #528FAC",
"M. c #6A97B8",
"N. c #7598B6",
"B. c #6A8BA9",
"V. c #4C9CC4",
"C. c #4B9CC9",
"Z. c #559CC5",
"A. c #4FA3CB",
"S. c #5BA6CA",
"D. c #5BA8D4",
"F. c #5AB0D8",
"G. c #65A8CA",
"H. c #64ADD9",
"J. c #67ACD4",
"K. c #66B2DC",
"L. c #6BB2DB",
"P. c #67B6D9",
"I. c #77B4D9",
"U. c #6BB8E4",
"Y. c #75BCE5",
"T. c #629CC0",
"R. c #7CC1EC",
"E. c #76C1EC",
"W. c #7AC6F5",
"Q. c #C48582",
"!. c #C58C84",
"~. c #CC8B84",
"^. c #CA8B87",
"/. c #DB8E84",
"(. c #D28C85",
"). c #C5938B",
"_. c #CA948B",
"`. c #D3938C",
"'. c #DD968B",
"]. c #DB9689",
"[. c #CC9B96",
"{. c #CA9994",
"}. c #D49B95",
"|. c #D69E99",
" X c #DB9991",
".X c #E78E82",
"XX c #E89488",
"oX c #F19184",
"OX c #F29A8E",
"+X c #E59E95",
"@X c #E99C92",
"#X c #F29F93",
"$X c #CBA69B",
"%X c #D8A39C",
"&X c #E9A59B",
"*X c #F3A69B",
"=X c #CFB2A8",
"-X c #D3B6A9",
";X c #D1B3A7",
":X c #E5ABA4",
">X c #EEACA2",
",X c #E5ACA6",
"<X c #F1ACA3",
"1X c #E6B2AC",
"2X c #EAB3AD",
"3X c #EFB0A7",
"4X c #F0B4AB",
"5X c #ECBBB5",
"6X c #E9B9B3",
"7X c #F1BDB5",
"8X c #D6C7B8",
"9X c #F1C2BB",
"0X c #89BCDC",
"qX c #81BEE2",
"wX c #85C3E9",
"eX c #88CAF4",
"rX c #93CFF5",
"tX c #DBD8C7",
"yX c #D5CEC0",
"uX c #DFE1CF",
"iX c #E1E1CD",
"pX c #E2E6D2",
"aX c #E4EBD6",
"sX c #E6EFD9",
"dX c #E6F1DA",
/* pixels */
"                                                                                                                                ",
"                                                                                                                                ",
"                                                    5.&.$.&.5.5.,.%.#.,.                                                        ",
"                                                &.,.5.&.%.:.5.5.,.%.%.,.5.>.%.                                                  ",
"                                             .#.&.5.5.%.#.&.5.5.>.%.%.,.5.>.%.X.o.                                              ",
"                                           .X.X.&.,.5.&.#.&.5.5.,.#.%.>.5.>.#.X.O.W                                             ",
"                                        O.W X.X.&.<.5.%.#.&.5.5.,.#.%.>.<.>.#.X.o.W #.                                          ",
"                      ,.%.&.<.<.+.J P O.X.o.X.X.%.5.5.%.#.&.5.5.>.%.%.,.5.>.#.O.o.O.X.Q Y W ,.5.,.%.>.                          ",
"                @.&.5.<.%.&.5.<.+.Y H O.O.I X.#.%.5.5.&.%.&.5.5.,.#.%.>.5.>.%.O.O.o.X.W Y T >.5.,.%.>.5.,.+.                    ",
"            =X2.@.&.<.<.%.&.<.<.` H W @.X.o. .#.%.5.5.%.#.&.5.5.,.%.%.,.5.>.#.X. .o.X.R Y Q :.5.,.%.>.5.,.+.=.{.                ",
"          XX{.1.X.&.5.<.%.&.5.<.W Y W O.O.o.@.#.&.5.5.%.#.&.5.5.,.#.%.>.5.>.#...o...#.o.Y T :.5.,.%.>.5.,.+.-._.|.              ",
"        %X X!.=.X.&.<.<.%.&.5.<.W H E X.X.W X.X.%.5.5.&.#.&.5.5.,.%.%.>.5.>.#.X.o.o.X...H ] :.5.>.%.>.5.,.#...!.}.'.            ",
"      !.,X,X^.=.X.&.5.,.%.&.5.5.W Y W O.X.R O.#.%.5.5.#.#.&.5.5.>.%.#.,.5.>.%.X.o.o.X.o.Y E ;.5.,.%.>.5.,.#...7.%X&X[.          ",
"    I 2.-X5X`.=.X.&.5.<.%.&.5.<.` H E O.X.R ..#.&.5.5.%.#.&.5.5.>.%.%.,.5.>.#.X.o.o.X.o.H E :.5.,.%.>.5.,.X. .~.1X1X[.'         ",
"    U 7.5X9X`.=.X.&.5.,.%.&.5.<.` H T X.X.Q O.X.%.5.5.%.%.&.5.5.,.#.%.>.5.>.#.X.o.o.X.o.H E :.5.,.%.>.<.,.%...~.6X5X|.`         ",
"  F P 7.5X9X`.@.X.&.5.<.%.&.5.<.W H Q X.X.o.O.X.&.5.5.%.%.&.5.5.,.%.%.>.5.>.#.X.o.R X.o.H T :.5.>.%.>.5.,.#...~.1X5X|.` F       ",
"  M F 7.6X3X`.=.X.%.5.5.%.&.5.5.R H E X.X.W X.X.%.5.5.%.#.&.5.5.,.#.%.,.5.>.#.X.o.o.X.o.H Y :.5.,.%.>.5.,.#...~.:X>X|.*.B       ",
"  Z K 3.2X>X`.=.X.&.5.,.%.&.5.5.Q Y W X.X.W O.#.%.5.5.%.#.&.5.5.,.%.#.>.5.>.#.X.o.o.X.o.H ] :.5.,.%.>.<.,.#...~.:X&X|.` B M     ",
"  F U 3.2X3X`.=.X.&.5.,.%.&.5.,.W H W O.X.I X.X.&.5.5.%.#.&.5.5.,.%.%.>.5.>.#.X.o.o.X.o.J E ;.5.,.%.>.5.,.#...~.:X>X|.` K S     ",
"N F U 3.6X4X`.=.X.&.5.5.%.&.5.5.W Y E O.X.o.O.X.%.5.5.%.#.&.5.5.,.#.%.,.5.>.%.X.o.o.X.o.H E :.5.,.%.>.5.,.#. .~.1X3X|.` K Z     ",
"g S I 3.5X5X`.=.X.%.5.,.%.&.5.,.Q H W X.X.o.@.#.&.5.5.%.$.:.5.5.>.%.%.&.5.>.#.X.o.R X.o.H E :.5.,.%.>.5.,.#...~.1X4X|.` K M     ",
"* S I 3.6X3X`.=.X.&.5.,.%.&.5.5.@.T E O.O.W X.X.%.5.5.%.O.@.{ { =.o.+.,.5.&.#.X.o.o.X.o.H E :.5.,.%.>.<.,.#. .~.,X>X|.` K M     ",
"* S U 3.2X<X`.=.X.&.5.5.&.&.5.,.W T W ..X.W X.X.;.;.{ Q T T Q Q T T T ! ;.;.+.X.O...X...H Y ;.5.,.%.>.<.,.$. .~.:X&X|.` F M     ",
"* S U 3.1X<X`.=.X.&.5.,.%.&.5.<.Q Y R @.X.W R U Y Q T T T T T R R T Y H E T E T R o.#.o.H ] :.5.,.%.>.4.,.$...~.:X*X|.` K B     ",
"* S U 1.1X>X`.=. .&.4.,.%.&.5.<.` H W X.o.T H J G H R R W _ | ( _ Q W U G H H H H W X.o.H ] :.5.,.%.>.5.,.#.U ~.:X&X|.` K M     ",
"* S U 3.6X2X`.=. .>.5.,.%.&.5.5.` H E o.R G G U I W W _ | l.M.M.B.g._ W W P P G G H o.o.H P :.5.,.%.>.5.,.#...~.,X3X|.` K B     ",
"* S U 3.5X9X`.=.#.&.5.<.%.&.5.,.W H T P H U I I I ` ) l.M.I.wXwXJ.G.B.g._ W I I P G H P H E :.5.,.%.>.5.,.#. .9.6X5X|.` K M     ",
"* S U 3.5X9X}.=.X.&.<.<.%.&.5.<.W Y H H P I W W E / n.G.Y.Y.Y.U.U.P.F.T.l.] W W I ~ G H J Y :.5.,.%.>.5.,.#. .(.6X7X|.` K M     ",
"* S I 3.6X7X`.*. .&.5.<.%.&.5.<.' J J G K W W W E ( B.M.N.N.N.M.N.N.N.B.d.] U T W I L J A P :.5.>.%.>.5.,.X. .~.2X4X|.` K M     ",
"* S U 3.2X3X`.=.X.%.5.<.%.&.5.<.Q J H ^ I I W ~ I _ / / / / / / / / / ( _ P I W I I P G J _ :.5.,.%.>.5.,.X.U ~.,X>X|.` K M     ",
"* S I 3.1X>XQ.` ..&.<.,.%.&.5.<.+.W ` *.o. .*.*.o. .*.*. . .-.-.*. . .-.*. .@.-.*. .*.*.` W :.5.,.%.>.5.,.@.U Q.%X&X|.` K M     ",
"* S I 3.1X|.Q.` ..+.,.,.&.>.<.<.%.:.<.,.%.:.<.,.%.&.<.,.%.&.<.<.>.-.>.<.>.+.>.<.>.+.:.5.:.%.>.5.>.%.>.<.&.o.U 2.}.&X|.` K M     ",
"g S I 1.%XXX!.[ W o.+.&.%.>.<.<.&.&.5.5.%.>.5.,.&.&.5.5.%.&.5.5.,.%.,.5.<.%.>.5.>.%.>.5.,.&.>.5.>.%.%.:.o.Q W !.}.'._.] K M     ",
"* S U } $X0.}.2.Q W W +.O.X.>.>.#.&.&.&.%.%.,.>.#.X.5.&.X.+.5.5.>.#.%.>.>.X.&.,.>.%.&.>.&.%.&.>.+.+.O.@.W W [ ^.+X/.).` K M =   ",
"* S U [ {..XXX^.[ W W W U ..O.+.X.O.+.+.O.@.+.O.O.O.X.%.;.9.]. X(.:.;.+.O.X.O.+.+.O.O.+.O.O.O.+.@.o.I R W ' 6./..X].8.` K M =   ",
"* S U ` 2.`.0.XX^.[ ' W W W W W W Q W W W U R W Q Q 8.8.{.8XiXiX8X;X_.2.W W W W W W W W W W W W W W W W ' 7.`.0.9._.' I K M =   ",
"& S K R ' ^.9.5./.}.!.2.2.2.2.2.7.7.2.2.;.W E W ! !.-XtXiXaXaXaXaXpXtX=X[ W R W W =.2.2.2.2.2.3.3.2.1.8.{.}.0.4.7.2.W U G M     ",
"$ M K I ` ' 7./.0.0./.`.+X+X+X+X+X&X,X,X:X7.` ' ).8XpXaXsXaXaXaXdXdXuX=X[ [ ' W ;.}.1X,X:X&X+X+X+X+X X`.0.0.0.~.1.` I U B g     ",
"  N S U I Q ;.6.(./.XXXXoXoXoXoXoXOX#X<X,X}.[ !.8XpXdXaXiX8X;X$X8X8X=X!.} $X{.[ 2.1X<X*XOXoXoXoXoXoXOXXX/./.7.1.` R U L M g     ",
"  = V K I E W [ } !.`.+XXX.X.X.X.X.X.X@X&X).8.=XpXsXaX8X=X8.} 8.8.).8.} $XtX8X).2.&X@XXXXX.X.X.X.X.XXX X_.6.[ ' W I U S g d     ",
"  y f V K P W W I ` 6.`.|.}.}.}.|.|.|.}.^.' _.tXsXaXyX).[ 1.).{.8.{ ] ).yXaXpX$X1.1.}.}.}.}.}.|.}.|.}.^.=.W I I I U D f d y     ",
"  i s a V L I I W W Q W W W W W W W W W W W =XiXsXiX$X1.).-XtXuX8X$X} 8.tXaXsX8X6.I W W W W W W W W W W W W W  .K D f j i d     ",
"  i x z a V G U I  .I U W I W W R I W W P ` $XiXaXtX{.1.=XuXpXaXpX8X!.8.8XpXsX-X8.U W U I W  .I W I I W W I ^ L D f c n i d     ",
"  i j z z f V G L I I L P I U I U I U U I ` } _.[.).} [ ^.[.[.[.[.{.} ' Q.[.[.Q.' U I I I I I L U U I I P I L D f c z z p r     ",
"  9 v v z k f V K L L L L L L L L L L L L L ^ ^ ~ L L L P P ] Y ~ ~ L L ~ ~ ^ ^ L L L L L L L L L L L L L L S g c z l q 9 u     ",
"  w.r.e.l l l f V C C C C C C Z C C C C C C C C C C C C C C V V C C C C C C C Z C C C C C C C C C C C C C C f c z z q y.q.s     ",
"  u.c.x.u.l z k 2 : : i i i i i i i i i i i i i i i j j k j y % s j j j s y i i i i i i i i i i i i u r : : p z l v z.C.i.6     ",
"  q.Z.L.c.w.l h : - ; p k z z z z k z z z z z k j l i.a.a.i.n 6 i.a.a.i.u.s z z z z z z z z z z z k h 2 - - 7 h u.f.D.F.k.6     ",
"  e n.R.H.f.i.5 ; - - 4 h h h h k j z z k k j h c b c.v.b.m.b 6 z.v.b.v.a.j h j k k z k j j h h h h p , - - 5 v f.Z.Y.L.u.t     ",
"  3 i.G.U.U.V.w.; - ; 9 q w.v q.q q.9 p s h 7 p h u.V.Z.A.v.i.x m.V.A.b.z.h h 9 h 7 s 7 q q.q u.w q.q 1 - - 8 f.D.U.L.z.k :     ",
"  + 4 r.D.Y.U.f.7 - ; t.x.c.Z.x.j.y.q 4 9 w.w.w.b b Z.C.A.n.i.n m.A.A.A.z.l w u.q.v h 7 r.j.b.n.x.j.r.8 - - t.S.Y.U.c.0 : @     ",
"  , 2 7 i.L.U.x.8 - ; y.D.wXwXH.H.V.w.4 u.j.V.V.z.a.D.D.G.S.k.n n.F.F.S.v.i.j.C.V.s.l 9 y.H.wXwXH.U.c.0 - - r.F.Y.v.9 4 r @     ",
"  r 2 3 7 e.A.y.8 - < f.qXrXwXwXrXG.w.0 z.D.Y.H.z.k.P.P.P.G.k.m G.P.P.P.M.e.Z.U.H.V.u.8 m.wXrXY.wXeXn.0 - ; r.C.c.q 4 3 r @     ",
"  # r 2 5 7 r.t.8 - ; r.G.Y.U.U.Y.b.w.e.D.wXwXU.m.a.P.P.U.G.l.m G.P.P.P.Z.i.G.R.wXU.V.0 z.L.U.U.Y.Y.c.8 X ; t.t.q 5 3 t +       ",
"    O r u 2 7 8 < - - 9 r.f.y.f.f.w 8 f.W.rXrXwXm.i.S.S.S.v.k.n n.S.S.S.m.u.H.eXeXeXZ.q q r.r.s.s.s.q < - - 8 8 5 2 2 +         ",
"      . r 3 5 ; - - ; ; ; ; ; ; ; ; 1 i.J.Y.0XI.k.e i.i.k.k.6 s b e.k.i.u.w.Z.L.qX0Xn.7 ; < 1 < < < ; - ; - > < u , +           ",
"        O r u , - - - , 3 3 2 u 3 u 4 9 b p.p.b 9 , o                 o X 6 e u.p.m q 4 3 u u u u u , , - - , 2 t +             ",
"          # O O X o X + @ @ O O . % O . . . O . # #                       + . O . O X + + @ + O @ + O X o X O O O               ",
"                                                                                                                                ",
"                                                                                                                                ",
"                                                                                                                                ",
"                                                                                                                                "
};
