/* XPM */
static char *_69dd1d2bc9649a2a95373291672543aCaL4e78PpYaK5pER[] = {
/* columns rows colors chars-per-pixel */
"52 50 201 2 ",
"   c None",
".  c #26211E",
"X  c #28231F",
"o  c #3D2E24",
"O  c #312C29",
"+  c #313536",
"@  c #44362D",
"#  c #463932",
"$  c #453B37",
"%  c #603D33",
"&  c #47413F",
"*  c #76423E",
"=  c #68433C",
"-  c #2C3B43",
";  c #293B48",
":  c #383C43",
">  c #39434C",
",  c #274456",
"<  c #284354",
"1  c #364553",
"2  c #3B4753",
"3  c #3D4955",
"4  c #3C4C5A",
"5  c #364956",
"6  c #2B414F",
"7  c #2B5267",
"8  c #3D5B6D",
"9  c #395467",
"0  c #2A5A73",
"q  c #315569",
"w  c #2A607C",
"e  c #3A6278",
"r  c #434042",
"t  c #43444A",
"y  c #4A494A",
"u  c #444752",
"i  c #414956",
"p  c #464E58",
"a  c #45515D",
"s  c #4B525B",
"d  c #505556",
"f  c #694852",
"g  c #7D4542",
"h  c #435261",
"j  c #455769",
"k  c #465869",
"l  c #4B5A69",
"z  c #4D5E71",
"x  c #425F76",
"c  c #5E6568",
"v  c #476273",
"b  c #824953",
"n  c #9A595D",
"m  c #8E494A",
"M  c #A64D56",
"N  c #A74E58",
"B  c #A94F59",
"V  c #AC5159",
"C  c #A35B5C",
"Z  c #AA5D5B",
"A  c #A95259",
"S  c #B95D57",
"D  c #B5545C",
"F  c #B65A5C",
"G  c #BA5D5A",
"H  c #B8565D",
"J  c #AB6258",
"K  c #BE6156",
"L  c #B5625B",
"P  c #BC625A",
"I  c #B36758",
"U  c #B75B63",
"Y  c #8D6F7A",
"T  c #976E73",
"R  c #BC6B63",
"E  c #BB676D",
"W  c #B86663",
"Q  c #BC7167",
"!  c #BF7B74",
"~  c #BE7A74",
"^  c #A76869",
"/  c #C15D5B",
"(  c #C25C55",
")  c #C46155",
"_  c #CD6557",
"`  c #C46359",
"'  c #CC6659",
"]  c #CC6C5D",
"[  c #D06656",
"{  c #D16758",
"}  c #D26B5A",
"|  c #D6715F",
" . c #C7705F",
".. c #C26662",
"X. c #C27367",
"o. c #D57361",
"O. c #D87562",
"+. c #D97965",
"@. c #DC7E69",
"#. c #D37B6B",
"$. c #C27C74",
"%. c #C67F79",
"&. c #E77A6A",
"*. c #BF8179",
"=. c #DE836C",
"-. c #C5817B",
";. c #D78270",
":. c #ED8171",
">. c #EB8678",
",. c #E0856D",
"<. c #2C6885",
"1. c #396B87",
"2. c #34718E",
"3. c #377596",
"4. c #276F92",
"5. c #397DA3",
"6. c #436A81",
"7. c #4A7285",
"8. c #5A7688",
"9. c #477994",
"0. c #827282",
"q. c #C37D81",
"w. c #3A83AA",
"e. c #3682AA",
"r. c #358AB7",
"t. c #4C829C",
"y. c #6C829C",
"u. c #4D84A1",
"i. c #4B8DAB",
"p. c #4689AB",
"a. c #4A93B8",
"s. c #5893B3",
"d. c #649BB6",
"f. c #6488A8",
"g. c #3A93C4",
"h. c #4E9CC3",
"j. c #4B9CCA",
"k. c #469BCA",
"l. c #52A1CD",
"z. c #5AA5CC",
"x. c #5AADD5",
"c. c #57A6D5",
"v. c #53A8D1",
"b. c #63A8C8",
"n. c #63AED6",
"m. c #64ADDB",
"M. c #6AB4DB",
"N. c #69B9DD",
"B. c #68B2D7",
"V. c #5EB4E2",
"C. c #69B7E5",
"Z. c #73BBE6",
"A. c #7CC1EB",
"S. c #7CC3F3",
"D. c #C98782",
"F. c #CA8883",
"G. c #C78E87",
"H. c #C4928B",
"J. c #CB9A8E",
"K. c #C59691",
"L. c #C99D96",
"P. c #DC9C92",
"I. c #D29C9B",
"U. c #DC9186",
"Y. c #E59387",
"T. c #E39E94",
"R. c #EA9386",
"E. c #CDA49B",
"W. c #D6A39D",
"Q. c #D9A29C",
"!. c #EEA79D",
"~. c #F2A79C",
"^. c #D9A6A2",
"/. c #DAA9A4",
"(. c #D5A8A2",
"). c #CDB5AD",
"_. c #CFBAB3",
"`. c #D0B2A9",
"'. c #F2ADA3",
"]. c #E6B4AE",
"[. c #F3B5AC",
"{. c #F2B1A7",
"}. c #E6BAB5",
"|. c #E9BAB4",
" X c #F3BDB5",
".X c #EAAFA6",
"XX c #D6C7B8",
"oX c #F5C2BB",
"OX c #87C4EA",
"+X c #93CCED",
"@X c #87C9F6",
"#X c #9ED3F3",
"$X c #91CDF4",
"%X c #A1D8F8",
"&X c #D4CBC2",
"*X c #D9D8C8",
"=X c #DFE2CF",
"-X c #E2E4D0",
";X c #E5ECD6",
":X c #E5EFD8",
">X c #E2E3CF",
/* pixels */
"                                                                                                        ",
"                                                =.=.O.                                                  ",
"                                        =.=.} { @.=.+.[ o.=.                                            ",
"                                    _ { +.=.} { @.=.+.[ | =.O.[ `                                       ",
"                                  P _ { @.=.} [ @.=.O.[ | ,.O.[ ` P                                     ",
"                                _ P ) { @.=.} { @.=.O.[ | ,.O.[ ) ` [                                   ",
"              ] ,.+.{ @.=.' n ` _ P _ { @.=.{ { @.,.O.[ O.=.O.[ ` ` _ L J | =.+.{ =.                    ",
"          _.` } =.+.{ @.=.L J ` _ P _ { @.@.} [ =.=.@.[ } =.O._ ` P _ P J ] =.+.{ =.=.) $.&X            ",
"        Y.K.` } =.+.{ =.=.L Z ` _ P _ { +.=.} { @.=.O.[ | =.O.[ ` P [ P J ] ,.+.{ @.@.[ ..(.>.          ",
"      `.T.-.) } =.@.{ @.&.L Z ` _ P _ [ =.=.} { =.=.O.[ | ,.O.[ ) ` _ ` C  .,.+.{ =.@._ P L.U.).        ",
"    P (. XF.) } =.+.{ @.=.P Z ` _ P _ { +.=.} { @.=.+.[ o.=.O.[ ` P _ ` C ] =.+.} =.@.{ K /..XK.        ",
"    L }.oXF.) } =.+.{ @.=.L J ` _ P _ [ +.=.{ { @.=.+._ | =.O.[ ` ` _ P C  .,.| } @.@._ ` /. XW.S       ",
"  D P |.oXF.) } =.+.[ @.=.L Z ` _ P _ { +.=.} { @.=.O.[ | ,.O.[ ) P [ P C o.=.+.{ =.@.{ ) /. XW.S       ",
"  m W ].'.F.` } =.@.[ =.=.P J ` _ P _ { @.=.} { @.=.O.[ | =.O.[ ` ` _ ` C ..,.O.{ =.@.[ K ^.'.W.S g     ",
"  V P ].'.F.) } =.@.' @.=.L Z ` _ P _ _ +.=.{ { @.,.+.[ o.=.O.[ ) P _ ` C ] ,.+.} @.@.[ K ^.~.W.D M     ",
"m H P }.[.F.) } =.+.{ =.@.P Z ` _ K _ { =.=.{ [ =.=.O.[ | =.O.[ ` ` _ P n ] ,.+.} @.@.[ ) /.{.Q.S D     ",
"* H P |.oXF.) } =.+.{ +.,.P J ` _ P ' [ +.=._ [ =.,.=.[ | ,.| [ ) ` _ P C ] =.+.{ =.@.[ S /. X^.S V %   ",
"* H W ].'.-.) } =.+.{ =.=.P J ` _ P ' { =.=.} I I Q I ) | =.| [ ` P _ ` C ] =.+.{ =.@.[ ) ^.~.Q.S V %   ",
"* D P ].'.F.( | =.+._ =.=.I J ` _ K ' )  .I J J I I I J J J  ._ ` ` { P n ] ,.+.{ @.@.{ ) (.!.Q.S M %   ",
"* D L [.'.F.) | =.=._ =.&.K Z ` _ I Z C Z I K ) K I K K F F C J Z G { P C  .,.+.} =.@._ ( /.~.Q.S V %   ",
"* D L ].[.F.) } =.+.{ =.@.L Z ` ) C V F P P G Y f.d.8.^ P L P F A C ` ` C ] =.+.{ =.@.[ / ^.'.^.D M %   ",
"* D W |.oXF.) } =.+._ =.=.P Z P Z D P P P Y f.n.$X@XZ.b.y.^ P P G D Z G C ] ,.+.} @.@.[ S /. X^.S V %   ",
"* D P |.oXG.) } =.+.[ =.=.L J C D K P K T z.m.OXC.V.Z.C.V.s.L P P G V C C ..=.+.{ =.@.[ ) /.oXQ.S V %   ",
"* U P |.[.-.( | =.+.{ +.=.L n V F S G P W 8.0.0.0.0.Y 0.8.Y L P L G H C n  .=.+.{ =.@.{ S /.'.^.S V %   ",
"* D W ].!.q.G } =.+.{ =.=.K W ../ / ..G / ` ` ( ..../ / ` ../ / ../ ....F o.,.+.[ =.=.` G I.!.W.D V %   ",
"* D G ].P.! L ` +.+.{ =.=.{ +.=.} O.=.o.} =.+.} &.&.+.{ =.@.{ @.=.} O.=.| ] =.+.{ =.| P G H.T.W.S V %   ",
"* D P (.Y.K.P P ` | [ +.@.{ +.=.| o.,.+.} ,.+._ @.=.+.{ =.@.{ @.=.} +.=.| | =.| { | P P R I.U.J.S V %   ",
"* D L E.&.(.Q P P P ` _ } ' ] } _ { } ] _ | _ _ #.;.o.` } } { { } _ ' } _ _ } ` P K P K -.P.Y.H.D V %   ",
"* H G $.P.&.(.Q P G K P S K ) S P P P P K P G.E.&X>XXXJ.! P L P K P K K P ( P G K K P ~ Q.&.W.W F A %   ",
"* V G P G.&.&.(.K.! -.-.-.-.-.-.$.P P G ~ XX=X:X:X:X:X:X*X~ S P P R %.-.-.-.-.-.-.~ L.Q.&.;.%.K G M =   ",
"  m D G P G.P.&.>.P.!.!.~.~. X X XG.S -.*X;X:X:X;X;X:X:XXXX.$.Q P ^.oX X'.!.'.!.!.T.,.&.P.*.P F D g     ",
"  m U G P W ~ L.T.R.:.:.:.:.>.>.~.Q.Q &X;X;X=XXX-.X.J._.Q ~ &X)...|.R.>.:.:.:.&.:.R.Q.K.! P P F V *     ",
"  y b D G P K L -.^.^.^.^.(.(.^.I.P E.;X;X=XH.I ! K.R P ! XX:X=X*.X.(.^.^.^.^.(.^.W.Q L P P G V f &     ",
"  s a b H H P P P P S S K K S S P P XX:X:XE.R E.*X;X&XH.Q XX:X:XE.K S P S S S K S S P P P G V f l y     ",
"  p z h b D H H P G P P P P P P P P XX-X=XH.*.*X-X-X-XXXW ).-X=XJ.G P P P P G P P P P F H V f k v y     ",
"  h k z a b D U D D D D D D D D D D U E E U F E E E E Q H U E E U D D D D D H D H D D D V f k z k u     ",
"  2.2.k z a b V B M M M M M B M M M M M M M M M N N N N N N N N N N N N N N N N M M M M f l z j 5.8     ",
"  9.j.1.k z i : : u u u u u u u u u u u u h a a i t a h a p t u u u u u u u u u u t : : h z j 5.k.8     ",
"  3.A.z.1.k 4 ; - j z z z z z z z z z z l t.t.i.7.y t.t.u.9.l z z z z z z z z z z h - - h l 5.M.C.8     ",
"  e Z.Z.l.1.: ; - i h h h h h h h a a a v a.h.h.9.s a.h.h.i.s a h h h h h 4 h h j : - - h 5.c.Z.b.3     ",
"  : <.m.@Xc.q - ; 3.5.p.w.w.3.5 h 8 8 9 z h.j.h.t.d a.h.j.a.h 8 8 j a q 5.w.p.w.5.<.- - 2.C.S.l.7 $     ",
"  t 1 1.Z.Z.<.- ; r.M.+Xm.m.k.5 x r.j.k.v v.x.x.s.c z.x.x.d.1.g.l.w.h 7 j.OXOXc.m.4.: ; e.S.b.7 3 r     ",
"  t 3 1 <.c.<.- - a.#X@XA.#Xa.7 p.m.OXl.7.N.N.N.d.c B.N.N.b.1.B.OXc.9.7 M.#XS.OX$X2.- - 5.l.7 i 3 $     ",
"    t 4 1 0 w - - 3.x.c.n.n.3.0 C.+X@Xx.7.N.N.N.d.c b.N.N.b.2.A.S.S.c.7 a.c.c.M.z.0 - - 4.7 2 i r       ",
"      t 3 5 ; ; - ; , , < , ; 0 A.@X%XM.v i.i.i.t.y t.i.i.t.1.C.@X#Xm.< ; , , , < - - - ; 4 3 r         ",
"        t 3 : ; + 2 i i i i 3 4 1.8.8.e > X X X . . X X . O 4 6.8.8.e 4 i i i i 2 > - - 2 4 r           ",
"          # # + + # # # # # $ @ o o o o &                   # o o o o # # # # # # @ + + # #             ",
"                                                                                                        ",
"                                                                                                        ",
"                                                                                                        "
};
