/* XPM */
static char *f5cc627d024b4b4af68c0420a65d582684SPGJyuuMyAStYF[] = {
/* columns rows colors chars-per-pixel */
"50 49 114 2 ",
"   c None",
".  c #181107",
"X  c #1C150A",
"o  c #26241F",
"O  c #29251F",
"+  c #312316",
"@  c #372919",
"#  c #3C2C1B",
"$  c #232220",
"%  c #332E24",
"&  c #353126",
"*  c #422F1B",
"=  c #44311C",
"-  c #49321B",
";  c #6D421C",
":  c #73461D",
">  c #75481E",
",  c #7A491E",
"<  c #744D23",
"1  c #7D4C20",
"2  c #7D5428",
"3  c #804F21",
"4  c #805628",
"5  c #865A2A",
"6  c #8D5E2B",
"7  c #92632D",
"8  c #96692F",
"9  c #9B6C2F",
"0  c #9F6E31",
"q  c #A26F30",
"w  c #A57232",
"e  c #A97633",
"r  c #AD7934",
"t  c #B27D36",
"y  c #C67E32",
"u  c #BF8432",
"i  c #B78138",
"p  c #C18633",
"a  c #CA8235",
"s  c #C58933",
"d  c #CA8D35",
"f  c #CC8738",
"g  c #CC8F38",
"h  c #D78B37",
"j  c #D98B37",
"k  c #CC9038",
"l  c #D49135",
"z  c #E29735",
"x  c #E39936",
"c  c #E8A23C",
"v  c #DB9F47",
"b  c #D89D46",
"n  c #DB9F48",
"m  c #DAA048",
"M  c #DDA148",
"N  c #DDA149",
"B  c #DEA149",
"V  c #DEA249",
"C  c #DFA349",
"Z  c #E5AD46",
"A  c #E0A348",
"S  c #E0A349",
"D  c #E1A349",
"F  c #E2A349",
"G  c #E0A449",
"H  c #E1A449",
"J  c #E1A549",
"K  c #E3A449",
"L  c #E2A64B",
"P  c #E3A64B",
"I  c #E4A549",
"U  c #E4A74B",
"Y  c #E4A84B",
"T  c #E5A94B",
"R  c #E7AF49",
"E  c #E3A84D",
"W  c #E3A94D",
"Q  c #E3A94F",
"!  c #E4AA4D",
"~  c #E4AA4E",
"^  c #E4AB4F",
"/  c #E8B149",
"(  c #E9B149",
")  c #EBB24A",
"_  c #EAB24B",
"`  c #EBB34B",
"'  c #EBB44B",
"]  c #ECB54B",
"[  c #EAB44D",
"{  c #EBB54D",
"}  c #EBB64D",
"|  c #EAB54F",
" . c #EBB54F",
".. c #EBB64E",
"X. c #EAB64F",
"o. c #EBB74F",
"O. c #EBB850",
"+. c #E5BA5B",
"@. c #E5BC5B",
"#. c #E6BC5B",
"$. c #E6BD5B",
"%. c #E6BD5C",
"&. c #E6BE5D",
"*. c #E5C062",
"=. c #E5C063",
"-. c #E6C163",
";. c #E5C26A",
":. c #E5C46A",
">. c #E5C46B",
",. c #E6C56A",
"<. c #E6C56B",
"1. c #E6C66C",
"2. c #E6C76D",
"3. c #E6C76E",
/* pixels */
"                                                                                                    ",
"                                                                                                    ",
"                          0 8 0 9 9 9 9 0         9 9 9 9 9                     4 <                 ",
"            4 5 p p p p s V V m V V V v f j j j j j x x z x V V V V V n n v p u e w 4 <             ",
"            p p s s t P P P P U L L P P S S K S K K U U P P P P E ` } >.` U Z s p r e w             ",
"        = p s d s r t Y ( P U ` _ | 1._ ` ] +.E U S U E ( P U ( ` o.3.] ] ` U Z s s p r 9 +         ",
"      = q t r 8 t s V } +.P E 1.] } 3.] ] ] } _ _ >.( ] +.U E 1.] o.3.] ] ] ( E Z s s r r 8 +       ",
"y   = q r e 6 7 r t E $.E P E } } &. .] ] ] &.&.&.o.} $.E E E ] ] &.o.] ] ] +.U P p 8 e r e 2 +     ",
"l   - 7 7 6 , 7 r r k E P U ' ] ] &.] ] ] $.} ] o.&.+.E U E ] ] } &.] ] } $.` E V s w 7 7 e 5 @     ",
"  # 5 6 6 , , 7 r t d U U ] } $.] &.] ] } E E U E E E E U ( ] $.} &.] ] ] L U U x a r 6 6 6 6 ; =   ",
"  = 6 6 , , , 7 r s S U ] ] ] } &.} ` Y U P E U U P U ` } ] ] o.$.} ` U E U P S d s r q , 1 , : =   ",
"  = 1 , , , 6 r s d P P E ] ] } &.} U U E ( ` ( _ &.( ] E ] ] ] &.] U U U ` ( c s r r p q , : * -   ",
"  * > - , 6 7 r s t P U ' ] } $.} U U U } ] ] ] ] } ] ] ] ] } &.] E E U ' ' P s r r s s p q > ; =   ",
"  $ - > , 6 e r t S P Y } &.$.} ( E U ` ] ] 3.$.] ] ] ] ] &.$.} ( P U ` ] ' A s r r r t d p 9 # X   ",
"  $ = , 6 7 r r t P P E $.} } ] ( U U ` E &.} } ] } 3.&.$.} } ] ] U Y ] Y Y Z s e 7 7 r t r q @ .   ",
"  $ - 6 6 1 7 r t g P U } ] ] ] ` E ] $.} } ] ] } 3.} } } ] ] ] ( U } $.( Y / p e 7 6 7 7 r e 4 *   ",
"  $ = , , , 6 7 t d U ' } &.] ] E U ] ] } 1.] } &.} ] ] } &.] ' U Y ] } } ;.U v r w 6 6 1 6 6 5 =   ",
"  # > , , 6 6 7 r t Y ] ] ] ` U U U ] ] ] } ] } &.] ] ] ] } ' U P Y ] ] ]  .( P b e 6 6 , 1 6 5 -   ",
"  = , , 6 7 6 3 r t Y ] ] ] ( E U } ] ] ] ] } &.} ] ] ] ] ] ( E U ' ] ] ] ] } P V r w 6 , , 1 : =   ",
"  * , 6 6 6 6 1 t V Y ] ] ' U U ( ] &.o.3.3.-.} ] ] ] ] ] ] U U ' } $.} 3.3.-.P V r e w 5 > : * -   ",
"  = , 6 6 6 , , t P P ' ] E U ] ] ] ] 3.}  .} ] ] } $.] ` U U ( ] ] O.3. . .] ( V e r e 6 , : @ X   ",
"  = , 6 , , , 7 t P Y ] ( P Y ] ] O.3.o.] } $.} Y ] } ] ` U E ] ] } 3.} ] ] &.E V 7 r r w 5 : # %   ",
"  * - > - , 1 e r i Y } $.P E 1.] o.3.] ] ] } ] ] 3.] } $.U E 1.] O.3.] ] ] } V p 7 r r r 0 * $ &   ",
"  $ # - > , 7 r s s L $.E U E  .] &.o.] ] } &.&.&.} } &.L U Y o.} &.O.] ]  .+.V e 6 7 r e 7 2 O &   ",
"  $ # = 1 6 r s d S U L U U ] ] ] &.] ] } $.} } } &.$.L E U ] ] } &.] ] } &._ V w 6 1 7 7 6 5 # &   ",
"a $ # = 1 r s s d U P P E ( ] %.} &.] ] ' E Y U E E E E U ` } $.} &.] ] ' E U P b q 1 6 6 6 6 2 -   ",
"a $ $ - w r r r t U U ` ] ] ] O.&.} ] U U P U P U P U _ } ] ] } $.] ` U U E U U V r q 1 1 6 5 > =   ",
"a $ $ - r r 7 r t U ] ] Y ] ] ] &.' U U E ( ] ( _ &.( ] Y ] ] } &.` U U U ( ( E S p q , , 1 , : -   ",
"a $ # , e 7 e r s Y ] ] } ] } &.} U U U } ] ] ] ] } ] ] ` ] } &.] E E U ( } } _ S s e q , , : * =   ",
"a $ - 6 7 7 r r g ` Y ] } &.&.] ( E U ` ] ] 3.$.] ] ] ] ] &.$.} ( U U ` ] } 3.+.B r r r q > * @ X   ",
"a $ - 6 6 7 r r g ` L &.$.} ] ] ( P U ] E &. .} ] } 3.&.$.} } ] ] E Y ' E &. .} B e 7 r w > ; # %   ",
"p & 5 6 6 3 r r t U E } } ] ] ] ` U } $.} } ] ] } 3.} } } ] ] ] ( U } &.] ] } _ N e 7 7 r q : # %   ",
"y = 6 6 6 , r r t I ( Y ] $.] ] Y Y ] } } 1.] } &.} ] ] ] &.] ( E Y ] ] o.1.' ' S p w 6 7 e 5 # %   ",
"a = 1 6 , 3 r r t I Y Y ] o.' Y P Y ] ] ] } ] } &.] ] ] ] ] } U U U ] ] ' o.] ' V s e 6 , 7 5 # %   ",
"  = , , , 6 r e t Y P Y ] ] ( U Y ' ] ] ] ] } $.} ] ] ] ] ] ( U U } ] ] ' ' } @.S s e 6 1 6 6 2 +   ",
"    - , 3 e r p t d P P Y ] U Y ' } $.o.3.3.-.} ] ] ] ] ] ] E U ( ] &.o.2.2.=.E V r w , 1 6 6 5     ",
"  # = , 7 r s s r t k P U U P P Y Y E Y ^ o.' ] ] } &.] ' U U ] ] ]  .3.}  .E } m r e 6 > , 6 5     ",
"    = 3 r s s s r r r t t t t i P E P P P Y Y Y Y E ] E U P E E E ^ >.E E E @./ s r r q , , 1 5     ",
"    = , r s s s r e r e r p r r r t t t t t t i U P P L P S s t i U E P Y C d i r s s u 5 , , :     ",
"    = 6 t s s s e 7 r r t s p r r r r 7 r r t s d d t t t t r r r t g d t t r r t s s a w : - :     ",
"    = 7 r t s r e 7 r r t s s r r e e 6 7 r r s s a e r e 7 r r e r s s r e e 7 r t s s e , ; #     ",
"    = 7 r r r r e 6 7 r r r r r r e 7 6 7 r r t s a r e 7 7 r r r e t s e e 7 7 r r s s e 5 : @     ",
"    5 7 7 r r r e , 7 7 r r r r e 7 6 , 6 7 7 r r r e 7 6 6 7 7 r r r t r e 6 3 7 7 r r w 6 : @     ",
"  = 6 6 6 7 r e 6 , 6 6 7 r e 7 7 6 6 : , 7 6 7 r r e 6 6 6 , 6 7 7 r e e 7 3 3 6 6 8 e 6 6 , ;     ",
"  - 6 6 6 6 7 6 , , 6 6 , 1 7 6 6 , , , , 7 6 6 7 7 7 6 6 6 , , 3 6 7 e 6 6 6 : 3 6 6 6 6 6 , :     ",
"  = 6 6 6 6 6 , , , , 6 , , , 1 , , , , , , 6 6 , 1 6 6 5 , , , , 3 6 6 6 , 3 , , , 3 6 6 , , :     ",
"  = 1 6 6 6 , : - , , , , , , , : , , : - , > , , , , , , , , , , , 3 3 , , , , : , , , , , , ;     ",
"  = 1     , , : * - : , , > , , , : = = = , , , , , , , , , , , , , : , , : - : , , , , , , : #     ",
"            = * # # * - , , , > * * $ $ o * - , , , , , : * * * - : , , : * * * * - , : 3 : *       "
};
