/* XPM */
static char *_b627161075f4dd3d0de1212ab815160dpdSDXaAxBpAh0Xb[] = {
/* columns rows colors chars-per-pixel */
"50 50 200 2 ",
"   c None",
".  c #010000",
"X  c #0A0303",
"o  c #0C0904",
"O  c #0B0A09",
"+  c #140A09",
"@  c #1D130B",
"#  c #1B1007",
"$  c #0D1215",
"%  c #121515",
"&  c #1A1D1D",
"*  c #1B1617",
"=  c #260B0B",
"-  c #29180C",
";  c #271916",
":  c #391D1A",
">  c #351111",
",  c #2C2115",
"<  c #32220B",
"1  c #181C23",
"2  c #182329",
"3  c #272828",
"4  c #3F2A2B",
"5  c #3D322C",
"6  c #2B3337",
"7  c #343D3C",
"8  c #303738",
"9  c #2D2931",
"0  c #490B1A",
"q  c #491514",
"w  c #5D191D",
"e  c #57091D",
"r  c #611D1D",
"t  c #4E2F17",
"y  c #482A16",
"u  c #523119",
"i  c #513017",
"p  c #503011",
"a  c #5E1E2E",
"s  c #6A0D25",
"d  c #6E0F28",
"f  c #650E24",
"g  c #661A23",
"h  c #721128",
"j  c #7B172A",
"k  c #7E1A2A",
"l  c #741C35",
"z  c #4E2929",
"x  c #462625",
"c  c #573827",
"v  c #5D2131",
"b  c #443D3A",
"n  c #593234",
"m  c #6C2424",
"M  c #693B38",
"N  c #753D3D",
"B  c #7D3A3A",
"V  c #6D302F",
"C  c #3C413F",
"Z  c #7D5214",
"A  c #654710",
"S  c #76641E",
"D  c #53463E",
"F  c #5B4B3D",
"G  c #4D4139",
"H  c #6D4224",
"J  c #724321",
"K  c #68493A",
"L  c #7D5538",
"P  c #343E41",
"I  c #3D3B46",
"U  c #203445",
"Y  c #563E42",
"T  c #4E3C4C",
"R  c #783F40",
"E  c #374140",
"W  c #394241",
"Q  c #3A484E",
"!  c #354B59",
"~  c #3B5C73",
"^  c #3A526A",
"/  c #3F607A",
"(  c #414441",
")  c #454A4A",
"_  c #4A4952",
"`  c #545352",
"'  c #684341",
"]  c #7A4141",
"[  c #784544",
"{  c #6A564A",
"}  c #755544",
"|  c #76655C",
" . c #4A5669",
".. c #685A68",
"X. c #73787E",
"o. c #606368",
"O. c #8B1D2D",
"+. c #811B2A",
"@. c #822626",
"#. c #9C2E2D",
"$. c #96252E",
"%. c #8C3736",
"&. c #973435",
"*. c #962330",
"=. c #A82C33",
"-. c #AE3235",
";. c #BD3534",
":. c #BF3738",
">. c #B83537",
",. c #C13634",
"<. c #C13938",
"1. c #C03738",
"2. c #997501",
"3. c #A27E0B",
"4. c #844E27",
"5. c #8A4C2C",
"6. c #816D20",
"7. c #C8423B",
"8. c #D0483D",
"9. c #C64A2C",
"0. c #953841",
"q. c #843C56",
"w. c #BD3E40",
"e. c #C13F42",
"r. c #824A46",
"t. c #844A49",
"y. c #92584F",
"u. c #8E534C",
"i. c #BF4D52",
"p. c #B3484B",
"a. c #886C57",
"s. c #99735D",
"d. c #916C52",
"f. c #A9785B",
"g. c #BD5E69",
"h. c #8F6B75",
"j. c #BD606B",
"k. c #B1747A",
"l. c #954C63",
"z. c #D95140",
"x. c #DD5943",
"c. c #C84E4E",
"v. c #E55D44",
"b. c #E66146",
"n. c #EA6246",
"m. c #F06848",
"M. c #AF8A0C",
"N. c #B58702",
"B. c #CD9A00",
"V. c #CB890A",
"C. c #AF8571",
"Z. c #C38C6B",
"A. c #CB9671",
"S. c #CA9A7B",
"D. c #D49C77",
"F. c #DBA47D",
"G. c #E1A67D",
"H. c #3F6684",
"J. c #41698A",
"K. c #466685",
"L. c #436E90",
"P. c #7A778B",
"I. c #95758E",
"U. c #BC7484",
"Y. c #B97789",
"T. c #A57585",
"R. c #C07788",
"E. c #8C8195",
"W. c #B28598",
"Q. c #8D8BA1",
"!. c #9794A9",
"~. c #B692A9",
"^. c #BA9AB4",
"/. c #A995B2",
"(. c #AEA9BA",
"). c #DAAA93",
"_. c #D4AB90",
"`. c #E1AE8C",
"'. c #E3B08E",
"]. c #E8B695",
"[. c #E4B7A3",
"{. c #C99C8B",
"}. c #DDC0B9",
"|. c #EBC2A8",
" X c #F5CDB5",
".X c #FBD3BB",
"XX c #FFD8BF",
"oX c #ADA9C7",
"OX c #B8A9C9",
"+X c #B9B3D4",
"@X c #BBB8D8",
"#X c #B8BAC8",
"$X c #C0B8D9",
"%X c #CDC6D2",
"&X c #F1D8CE",
"*X c #DCD8E9",
"=X c #E5DCEC",
"-X c #EBE1E8",
";X c #E4E4F5",
":X c #EAEAFA",
/* pixels */
"                                                                                                    ",
"                                                                                                    ",
"                                                                                                    ",
"                                    h h h d h d h d h d h d h                                       ",
"                                  h h j j j j j j j j j j j h                                       ",
"                            h h d *.>.x.n.b.b.v.b.b.b.b.b.<.-.d d d                                 ",
"                            +.O.O.-.z.b.m.m.m.m.m.m.m.m.m.z.7.O.O.O.                                ",
"                        . . #.<.:.z.m.m.m.m.m.m.m.m.m.m.m.m.b.:.<.<.= .                             ",
"                          X #.<.7.8.m.m.m.m.m.m.m.m.m.m.m.m.v.:.:.:.= .                             ",
"                        X X #.<.<.8.m.m.m.m.m.m.m.m.m.m.m.m.v.:.:.:.= X                             ",
"                      h d s -.1.1.8.m.m.m.m.m.m.m.m.m.m.m.m.b.<.1.:.j f h                           ",
"                      0 d O.>.1.<.8.v.n.m.m.m.m.m.m.m.m.m.v.z.:.:.:.*.+.0 0                         ",
"                      . r <.1.1.<.<.<.n.m.m.m.m.m.m.m.m.m.7.<.:.:.1.<.#.. .                         ",
"                      . r <.1.1.<.<.:.8.8.8.8.8.8.8.8.8.8.<.:.<.<.1.<.#.. .                         ",
"                      . r 1.1.1.<.:.:.:.:.:.:.1.:.:.:.:.:.:.<.:.1.1.>.#.. .                         ",
"                      . > +.>.1.:.<.:.<.1.,.,.;.,.,.,.1.<.<.:.<.1.:.O.f .                           ",
"                      @ > 0 *.=.<.<.<.:.e.j.j.j.j.j.j.c.:.:.1.1.>.=.e 0 + -                         ",
"                  u u u - . e j :.<.<.,.c.+X+X+X@X+X+XU.;.:.<.<.*.d X + t t u                       ",
"                  t H f.c . h.I.O.O.$.T.~.+XW.j.j.k.OX^.Y.0.O.O.l.I.* - f.5.t                       ",
"                  u H F.} . Q.!.l l l ^.@X@XR.<.7.g.+X$X$Xt.l h h.oX2 , F.d.u                       ",
"                  N u.F.a.8 $ 9 oX%X;X;X;X;X;X=X*X=X;X:X;X=X*XOX..O 6 ` F.f.R                       ",
"                  R [ d.{ C & 3 P.!.(.*X:X:X:X:X:X:X:X:X:X+X(.P.) $ 6 ( a.u.R                       ",
"                      . & C C 8 . & 7 %X:X:X:X:X:X:X:X:X:X .3 . & C C 6 .                           ",
"                        $ % a.s.z ..Q.o.` P.X.X.X.X.X.o.` P.I.z } C.3 $                             ",
"                          . f.C.t.E.$X2 o W W G C G C & o !.OXt.f.A.; .                             ",
"                        . . O 5 |.&X;X2 @ A.A.A.A.S.A.G . #X-X.Xa.X . .                             ",
"                          . . ; {.}.-X| { '.'.'.`.'.'.C.G %X&X_.{ . . .                             ",
"                            . + R Z.XX.XXX.X.X.X.X.X.X.X.X&X[.[ : .                                 ",
"                                ; 4 ) D.]..X|.'.`.]. X|.`.} G ; *                                   ",
"                                . X o f.S.[.).A.A.F.|._.Z.< X . .                                   ",
"                            . O 8 S N.< O O x [ r.M $ O O 2.M.8 & .                                 ",
"                            * & P 6.B.p q I ) ' ' M I x > N.M.E 3 %                                 ",
"                        ] R T C E S B.9.c.$XP.8 7 ` @XY.,.V.N.C C C K N                             ",
"                      ] ] ] s.| % y Z 5.u.j.T.Q.Q.E.j.p.%.4.A % F C.[ N q.                          ",
"                      t.} 5.Z.C.. - u M %.,.U.@X+X^.e.&.M c y . K D.y.[ t.t.                        ",
"                  ] y. X'.A.y.V . y 4.@ = :.U.+X+X^.e.m . H H . x t.Z.F. XC.K                       ",
"                  z [  X|.`.K x # u 5.+ # ;.Y.+X+X^.<.r . J J # : c S.]..Xk.z                       ",
"                  . 3 .XXX.X3 X u H 5.# = >.U.+X+X^.<.w . J 4.u - . _.&XXX| .                       ",
"                      D D D       < - x m ;.U.+X+X^.:.%.z : -       G D F 5                         ",
"                      . . .         . M r.-.U.oXoX~.>.0.[ $ .       . . .                           ",
"                                    . ^ / b Q ) ) ) 7  .K.% .                                       ",
"                                  1 % ~ K.! P 3 3 6 ! ~ H.2 %                                       ",
"                                P W Q  .H.L.U . . $ H.H.H.! P P W                                   ",
"                                a T ~ K.~ 2 2       2 ! J.~  .v v                                   ",
"                                s T K.K.^ .         . U K.K. .d s                                   ",
"                                . g c.<.&.. .       . w c.:.#.X X                                   ",
"                                . q @.@.g X         . q @.@.m .                                     ",
"                                  . . . .             . . . .                                       ",
"                                                                                                    ",
"                                                                                                    "
};
